<?xml version="1.0" standalone="no"?>
<!DOCTYPE svg PUBLIC "-//W3C//DTD SVG 20010904//EN"
 "http://www.w3.org/TR/2001/REC-SVG-20010904/DTD/svg10.dtd">
<svg version="1.0" xmlns="http://www.w3.org/2000/svg"
 width="1024.000000pt" height="1024.000000pt" viewBox="0 0 1024.000000 1024.000000"
 preserveAspectRatio="xMidYMid meet">
<metadata>
Created by potrace 1.14, written by Peter Selinger 2001-2017
</metadata>
<g transform="translate(0.000000,1024.000000) scale(0.100000,-0.100000)"
fill="#000000" stroke="none">
<path d="M8545 9825 c-70 -12 -171 -49 -232 -87 -18 -11 -59 -33 -92 -49 -32
-16 -70 -40 -85 -54 -15 -14 -31 -25 -37 -25 -5 0 -9 -4 -9 -9 0 -5 -16 -16
-35 -25 -19 -9 -38 -22 -42 -29 -4 -7 -18 -20 -30 -28 -24 -17 -73 -83 -73
-100 0 -6 -13 -24 -30 -42 -16 -18 -30 -40 -30 -51 0 -13 -5 -17 -18 -14 -33
9 -53 -16 -53 -68 -1 -27 -5 -54 -10 -60 -6 -8 3 -30 26 -65 19 -29 35 -57 35
-61 0 -21 -21 -3 -48 40 -17 26 -48 64 -69 84 l-38 37 1 -38 c0 -20 4 -42 7
-48 4 -6 1 -13 -5 -16 -9 -3 -3 -13 15 -28 15 -14 27 -33 27 -43 0 -10 10 -32
23 -49 27 -39 43 -81 64 -167 17 -70 38 -106 66 -114 12 -3 22 3 29 19 11 24
-12 124 -53 229 -22 57 -19 71 7 27 10 -17 22 -31 26 -31 4 0 8 -9 8 -20 0
-11 5 -20 11 -20 6 0 8 8 5 18 -4 12 1 26 14 37 11 10 20 13 20 7 0 -7 6 -12
14 -12 8 0 17 -6 19 -12 4 -10 8 -10 14 -1 10 13 65 12 75 -2 5 -5 5 5 2 23
-6 28 -4 32 14 32 11 0 23 -6 25 -12 4 -9 6 -10 6 -1 2 21 -30 43 -62 43 -31
1 -31 1 -12 16 11 8 28 21 38 30 25 20 47 11 47 -21 0 -14 5 -25 11 -25 6 0 9
12 7 28 -3 28 1 29 39 18 19 -6 25 -1 38 30 12 30 18 34 30 24 11 -9 18 -8 35
8 14 13 18 22 11 27 -17 10 -13 25 7 25 19 0 42 18 42 33 0 5 -7 4 -15 -3 -17
-14 -58 -4 -52 13 6 18 84 18 101 1 19 -18 30 -18 47 2 11 13 9 14 -13 9 -20
-5 -29 -1 -42 16 -10 15 -12 25 -6 29 6 4 8 14 4 23 -8 23 2 21 28 -3 25 -23
33 -18 43 27 5 24 2 34 -12 42 -14 8 -1 10 50 7 63 -4 82 3 55 21 -7 4 -20 6
-29 5 -9 -2 -19 4 -23 13 -4 12 0 14 22 9 15 -4 39 -14 54 -22 15 -9 31 -12
35 -8 4 5 2 11 -4 13 -14 5 -18 33 -5 33 5 0 17 -9 26 -19 10 -11 25 -17 33
-14 14 6 14 7 1 17 -8 6 -18 21 -22 34 -6 18 -4 22 14 22 12 0 30 -5 40 -10
17 -9 18 -7 14 27 -4 31 -3 35 6 21 17 -27 33 -22 26 7 -5 19 -2 25 10 25 10
0 14 5 10 15 -3 8 1 21 9 29 18 18 15 57 -5 73 -8 6 -12 14 -8 18 4 4 19 -2
34 -14 31 -24 29 -25 38 11 5 22 -1 34 -39 72 -32 32 -57 47 -83 51 -20 3 -44
7 -52 8 -8 2 -46 -2 -85 -8z m5 -346 c0 -5 -7 -9 -15 -9 -9 0 -12 6 -9 15 6
15 24 11 24 -6z m-250 -199 c0 -5 -2 -10 -4 -10 -3 0 -8 5 -11 10 -3 6 -1 10
4 10 6 0 11 -4 11 -10z m-270 -180 c0 -5 -6 -10 -14 -10 -8 0 -18 5 -21 10 -3
6 3 10 14 10 12 0 21 -4 21 -10z"/>
<path d="M5110 9690 c-13 -24 -11 -139 2 -157 5 -6 5 -14 -1 -17 -12 -8 -1
-48 18 -62 13 -10 13 -16 3 -38 -17 -37 -15 -75 4 -83 15 -6 39 15 111 100 34
40 56 34 28 -9 -16 -25 -13 -64 5 -64 19 0 42 50 50 108 4 33 13 69 19 80 16
30 13 52 -6 50 -53 -4 -65 1 -59 27 5 21 3 25 -17 25 -13 0 -37 13 -53 30 -36
36 -87 41 -104 10z"/>
<path d="M8777 9623 c-4 -3 -7 -11 -7 -17 0 -6 5 -5 12 2 6 6 9 14 7 17 -3 3
-9 2 -12 -2z"/>
<path d="M5375 9509 c-4 -11 -5 -22 -3 -23 8 -7 78 7 78 16 0 6 -7 7 -15 4 -9
-3 -18 1 -21 9 -9 22 -32 18 -39 -6z"/>
<path d="M5450 9470 c0 -5 5 -10 10 -10 6 0 10 5 10 10 0 6 -4 10 -10 10 -5 0
-10 -4 -10 -10z"/>
<path d="M5663 9473 c-7 -2 -13 -9 -13 -15 0 -12 41 -6 41 7 1 12 -11 15 -28
8z"/>
<path d="M5371 9461 c-12 -8 -13 -14 -3 -36 8 -16 8 -24 2 -20 -6 4 -22 -1
-35 -9 -39 -26 -34 -75 10 -103 l35 -23 -4 33 c-4 32 8 66 28 79 13 8 46 -19
46 -38 0 -8 14 -26 30 -41 17 -14 30 -31 30 -36 0 -16 32 -35 52 -29 10 2 18
8 18 13 0 19 -112 184 -130 191 -11 4 -20 12 -20 18 0 12 -40 13 -59 1z"/>
<path d="M8490 9360 c0 -5 5 -10 11 -10 5 0 7 5 4 10 -3 6 -8 10 -11 10 -2 0
-4 -4 -4 -10z"/>
<path d="M5400 9344 c0 -9 5 -14 12 -12 18 6 21 28 4 28 -9 0 -16 -7 -16 -16z"/>
<path d="M5610 9350 c0 -5 5 -10 11 -10 5 0 7 5 4 10 -3 6 -8 10 -11 10 -2 0
-4 -4 -4 -10z"/>
<path d="M5400 9250 c-8 -5 -10 -10 -5 -10 6 0 17 5 25 10 8 5 11 10 5 10 -5
0 -17 -5 -25 -10z"/>
<path d="M5410 9210 c0 -5 5 -10 10 -10 6 0 10 5 10 10 0 6 -4 10 -10 10 -5 0
-10 -4 -10 -10z"/>
<path d="M5433 9185 c-3 -9 -3 -19 0 -22 8 -8 67 17 67 28 0 16 -60 10 -67 -6z"/>
<path d="M5300 9161 c0 -5 5 -13 10 -16 6 -3 10 -2 10 4 0 5 -4 13 -10 16 -5
3 -10 2 -10 -4z"/>
<path d="M5380 9150 c0 -5 5 -10 10 -10 6 0 10 5 10 10 0 6 -4 10 -10 10 -5 0
-10 -4 -10 -10z"/>
<path d="M7485 8990 c-4 -16 -4 -34 0 -40 8 -14 -8 -13 -22 1 -6 6 -9 17 -7
24 3 7 1 16 -5 20 -7 4 -11 -13 -11 -49 0 -51 2 -56 23 -56 21 -1 22 -1 3 -15
-14 -11 -20 -28 -21 -59 0 -35 2 -42 12 -34 9 7 13 7 13 -2 0 -7 -7 -18 -17
-25 -14 -10 -15 -18 -5 -56 7 -26 7 -48 2 -54 -12 -14 -14 -63 -5 -92 5 -15 3
-23 -4 -23 -6 0 -11 5 -11 11 0 5 -5 7 -11 4 -6 -4 -8 -13 -5 -20 2 -7 -4 -15
-15 -18 -22 -6 -26 -27 -4 -27 8 0 15 -3 15 -7 0 -5 -20 -8 -45 -9 -60 -1 -78
-19 -47 -44 26 -22 28 -32 5 -29 -10 1 -29 -3 -43 -9 l-25 -11 23 -7 c26 -8
30 -26 5 -23 -30 4 -75 -23 -70 -42 3 -10 -6 -23 -26 -34 -16 -10 -27 -13 -23
-6 4 6 3 11 -1 11 -15 0 -32 -22 -27 -35 3 -6 -2 -18 -11 -25 -8 -7 -15 -16
-15 -21 0 -5 -17 -27 -39 -49 -40 -41 -68 -53 -57 -24 5 14 1 16 -22 11 -16
-3 -34 -1 -40 5 -7 7 -15 9 -18 5 -10 -10 21 -35 41 -34 10 1 20 -4 23 -12 3
-10 0 -12 -13 -8 -24 10 -39 -2 -24 -19 8 -10 8 -14 0 -14 -6 0 -11 5 -11 11
0 7 -9 9 -24 5 -15 -4 -28 0 -36 9 -14 17 -56 20 -65 5 -3 -5 -1 -20 6 -32
l12 -22 18 23 c15 18 19 19 19 7 0 -9 7 -16 17 -16 31 0 3 -14 -34 -17 -27 -2
-40 3 -50 17 -18 25 -34 25 -60 1 -19 -18 -23 -18 -42 -4 -12 8 -25 12 -29 8
-4 -4 -1 -10 6 -12 10 -4 10 -8 1 -19 -6 -8 -16 -10 -23 -6 -20 13 -126 8
-126 -5 0 -7 -5 -13 -11 -13 -6 0 -8 -9 -4 -20 4 -14 2 -20 -9 -20 -17 0 -29
30 -20 54 5 12 0 16 -20 16 -17 0 -26 -5 -26 -16 0 -11 -6 -15 -19 -11 -15 3
-17 0 -13 -16 3 -14 1 -18 -6 -13 -7 4 -12 18 -12 32 0 13 -4 24 -10 24 -5 0
-10 -10 -10 -22 -1 -22 -2 -22 -25 7 l-25 30 6 -33 7 -33 -42 3 c-34 2 -41 6
-38 20 4 14 1 15 -21 7 -15 -6 -37 -8 -49 -4 -13 3 -23 1 -23 -5 0 -5 5 -10
10 -10 6 0 10 -5 10 -12 0 -9 -3 -9 -12 0 -7 7 -22 12 -35 12 -13 0 -26 7 -29
15 -8 20 -24 19 -24 0 0 -13 -4 -14 -22 -4 l-23 12 22 10 c39 17 34 33 -8 29
-22 -2 -39 -9 -38 -16 3 -28 -14 -57 -32 -53 -10 3 -21 0 -24 -7 -3 -8 -7 -8
-11 2 -9 20 -27 14 -21 -8 5 -21 -16 -45 -32 -36 -5 4 -12 -2 -14 -11 -4 -14
-5 -14 -6 -2 -1 15 -66 47 -84 41 -5 -1 -15 2 -22 8 -9 7 -16 6 -25 -5 -15
-18 1 -26 60 -28 40 -2 50 -10 29 -22 -7 -5 -4 -14 7 -26 16 -18 16 -19 0 -19
-13 0 -16 -5 -11 -22 6 -22 5 -22 -9 -5 -8 11 -13 24 -11 30 3 7 -7 20 -20 30
-20 15 -25 15 -25 3 0 -8 6 -16 13 -19 22 -8 3 -15 -25 -10 -16 3 -28 12 -28
19 0 19 -16 18 -24 -1 -3 -8 -13 -15 -22 -15 -13 0 -14 -3 -5 -14 6 -7 8 -26
5 -43 -5 -25 -10 -29 -34 -27 -16 1 -33 5 -38 8 -6 3 -17 -1 -26 -10 -9 -8
-20 -13 -26 -9 -5 3 -19 1 -31 -5 -16 -9 -18 -15 -10 -23 9 -9 14 -8 21 3 6 9
10 10 10 3 0 -6 10 -13 23 -15 22 -3 22 -3 1 -15 -16 -9 -27 -9 -49 3 -37 19
-40 13 -10 -21 13 -16 22 -32 19 -35 -3 -3 -11 3 -18 13 -19 24 -27 21 -20 -8
5 -20 2 -25 -13 -25 -11 0 -26 11 -33 25 -14 26 -33 25 -23 -2 8 -21 46 -59
56 -55 4 1 7 -5 7 -13 0 -19 -11 -19 -36 0 -37 28 -48 8 -16 -29 17 -20 16
-20 -3 -6 -11 8 -25 22 -32 30 -11 13 -12 13 -13 -2 0 -9 5 -20 11 -23 15 -10
-28 -38 -47 -31 -11 4 -18 -1 -21 -14 -4 -14 -11 -19 -23 -15 -16 5 -18 1 -16
-30 2 -20 11 -42 22 -51 18 -15 18 -15 -5 -10 -17 3 -25 0 -28 -15 -6 -20 -18
-25 -28 -9 -3 5 -13 6 -21 3 -9 -3 -20 0 -24 7 -4 7 -13 9 -20 5 -10 -6 -9
-10 3 -16 9 -6 13 -17 10 -29 -6 -23 -23 -27 -23 -5 0 21 -40 41 -50 24 -11
-17 0 -41 16 -35 8 3 14 1 14 -3 0 -5 3 -17 6 -25 5 -12 2 -15 -12 -9 -12 4
-15 3 -9 -6 5 -9 2 -12 -11 -9 -11 2 -19 11 -19 21 0 17 -8 19 -33 10 -16 -7
4 -33 24 -33 8 0 14 -4 14 -10 0 -5 -7 -10 -15 -10 -8 0 -15 4 -15 8 0 5 -11
14 -25 20 -35 16 -31 0 5 -21 29 -17 41 -47 20 -47 -5 0 -10 4 -10 9 0 14 -33
23 -40 11 -4 -7 -13 -11 -21 -10 -27 4 -40 0 -34 -10 4 -6 14 -9 22 -8 9 2 18
-3 21 -11 2 -8 0 -11 -6 -8 -5 4 -12 -6 -15 -21 -3 -17 0 -30 9 -35 8 -4 14
-16 14 -25 -1 -13 -6 -11 -23 11 -33 39 -49 35 -42 -10 3 -21 2 -32 -1 -25 -3
6 -13 12 -21 12 -14 0 -14 -2 0 -18 19 -21 23 -37 7 -27 -6 4 -16 2 -23 -3 -7
-5 -24 -12 -39 -16 -32 -7 -38 -26 -8 -26 22 0 27 -16 8 -23 -7 -2 -22 4 -33
14 -20 17 -20 17 -21 -14 -1 -17 -6 -33 -12 -35 -5 -1 -8 -11 -5 -21 7 -27
-14 -61 -38 -61 -15 0 -19 -5 -15 -15 6 -17 -33 -48 -55 -43 -8 2 -15 -7 -17
-21 -3 -16 0 -22 10 -18 7 2 12 10 11 16 -2 6 2 11 7 11 16 0 11 -19 -10 -37
-21 -18 -27 -43 -10 -43 6 0 10 -5 10 -11 0 -11 -50 -7 -71 6 -8 6 -9 3 -1
-10 12 -22 -1 -49 -36 -78 -12 -10 -20 -22 -17 -27 3 -5 1 -11 -5 -15 -15 -9
-12 -25 4 -25 7 0 18 -6 24 -12 8 -10 4 -13 -14 -13 -13 0 -24 4 -24 10 0 5
-5 4 -12 -3 -9 -9 -7 -16 7 -32 17 -18 17 -20 2 -14 -10 3 -24 1 -31 -5 -9 -8
-17 -8 -20 -2 -3 5 0 11 6 14 7 2 9 8 5 13 -12 13 -28 -18 -22 -43 3 -13 1
-23 -4 -23 -6 0 -8 -7 -4 -16 3 -8 12 -13 19 -10 10 4 11 -1 5 -16 -5 -14 -23
-26 -47 -33 -29 -8 -39 -16 -38 -32 0 -15 -5 -19 -20 -16 -19 4 -19 3 4 -15
20 -17 22 -23 12 -35 -9 -10 -10 -17 -2 -22 13 -8 13 -35 0 -35 -5 0 -10 7
-10 15 0 13 -4 14 -20 5 l-21 -11 21 -17 c21 -17 21 -17 -9 -17 -16 0 -33 3
-37 8 -4 4 -12 7 -18 7 -5 0 -2 -6 8 -13 17 -12 17 -15 -3 -50 -11 -20 -18
-37 -14 -37 4 0 2 -5 -4 -11 -6 -6 -9 -17 -7 -24 3 -7 -4 -28 -16 -47 -18 -31
-19 -37 -5 -48 22 -18 18 -32 -5 -20 -11 5 -29 15 -40 20 -30 16 -45 1 -20
-20 19 -16 19 -20 5 -46 -11 -22 -12 -31 -2 -43 10 -12 9 -13 -1 -7 -8 5 -21
1 -32 -9 -10 -9 -24 -14 -29 -10 -16 9 -41 -20 -41 -47 0 -30 -11 -45 -35 -49
-14 -3 -20 -13 -21 -36 -2 -40 -10 -63 -23 -63 -6 0 -8 7 -5 15 9 22 -18 10
-34 -15 -10 -17 -10 -20 3 -20 8 0 15 -6 15 -14 0 -8 3 -22 7 -32 5 -15 1 -14
-27 6 -18 13 -30 18 -26 11 5 -7 10 -35 11 -61 2 -38 0 -47 -11 -43 -10 4 -14
-3 -14 -25 0 -17 -4 -33 -10 -37 -13 -8 -1 -35 16 -35 8 0 14 -4 14 -9 0 -5
-9 -7 -20 -4 -11 3 -20 0 -20 -6 0 -6 -5 -11 -11 -11 -5 0 -8 4 -5 9 3 5 -5 9
-18 9 -13 0 -54 12 -92 28 -59 24 -82 28 -162 27 -87 0 -93 -2 -113 -27 -21
-26 -67 -38 -53 -13 4 6 -2 4 -14 -7 -23 -20 -41 -68 -67 -182 -16 -66 -16
-76 -1 -125 17 -59 51 -98 166 -188 36 -28 79 -64 96 -80 77 -71 227 -68 313
5 42 36 118 173 144 259 22 72 43 114 82 165 19 25 68 109 107 188 40 79 74
139 76 133 8 -24 18 -9 14 22 -2 22 2 38 12 46 13 11 16 11 16 0 0 -10 3 -10
11 -2 6 6 18 9 25 6 17 -6 18 9 3 24 -7 7 -3 10 15 11 14 0 26 -3 26 -7 0 -3
14 -6 30 -6 17 0 29 5 26 10 -2 6 19 10 50 10 53 0 68 -7 39 -19 -22 -8 -18
-25 5 -19 11 3 20 10 20 15 0 6 6 6 14 -1 8 -7 17 -8 20 -3 7 11 41 9 58 -5
21 -16 48 -23 48 -13 0 6 7 10 15 10 8 0 15 -7 15 -15 0 -8 5 -15 10 -15 6 0
10 4 10 9 0 14 30 7 41 -10 6 -10 9 -10 9 -1 0 6 9 12 20 12 11 0 20 6 20 13
0 9 2 9 8 0 4 -7 24 -15 44 -18 33 -5 36 -4 31 15 -3 12 -1 20 6 20 7 0 9 -4
6 -10 -3 -5 -2 -10 4 -10 5 0 12 8 14 18 4 16 5 16 6 0 0 -10 8 -18 16 -18 8
0 12 6 9 14 -3 7 2 16 11 20 13 5 15 1 10 -14 -5 -16 -2 -20 14 -20 12 0 21 6
21 14 0 9 8 12 24 9 17 -4 28 1 38 16 13 22 38 29 38 11 0 -5 -7 -10 -15 -10
-23 0 -18 -16 11 -29 32 -14 54 -3 29 16 -11 7 -15 14 -9 14 19 3 30 5 47 13
21 10 50 -11 43 -31 -4 -8 -1 -11 5 -7 6 3 9 16 7 29 -4 18 -1 21 13 18 15 -4
16 -9 9 -23 -6 -10 -10 -27 -9 -37 1 -10 6 -4 11 15 6 17 15 32 19 32 5 0 5 8
2 17 -5 12 -2 15 10 10 22 -8 47 2 47 19 0 21 17 17 23 -6 3 -11 2 -18 -3 -15
-4 3 -14 -2 -21 -11 -11 -13 -9 -14 15 -8 20 5 27 3 26 -7 -5 -30 0 -50 10
-44 7 4 8 11 1 18 -6 8 -4 16 5 25 8 7 14 10 14 6 0 -3 7 -1 15 6 8 7 15 17
15 23 0 6 -7 2 -15 -9 -14 -19 -14 -19 -15 1 0 15 -2 17 -9 7 -7 -11 -10 -10
-15 3 -8 23 -8 27 4 20 6 -3 10 -2 10 4 0 6 14 4 34 -4 25 -11 35 -12 38 -3 3
7 9 8 18 3 8 -5 27 -10 42 -12 22 -2 26 0 21 15 -4 12 0 10 15 -7 21 -23 23
-23 47 -7 15 10 25 12 25 5 0 -7 9 -9 26 -5 18 5 32 2 45 -10 11 -10 22 -14
26 -11 3 4 1 7 -5 7 -6 0 -9 6 -6 14 3 8 -4 16 -18 20 -22 6 -22 7 -4 17 14 9
20 8 26 -1 4 -7 12 -10 18 -6 6 3 15 -2 21 -11 8 -14 12 -16 22 -5 19 18 29
15 26 -7 -1 -11 2 -19 8 -18 5 1 9 5 8 9 -2 4 4 5 12 2 9 -4 14 -11 13 -18 -1
-6 2 -26 6 -44 8 -32 9 -33 27 -16 10 9 16 20 14 24 -3 5 10 21 28 36 22 20
31 36 29 52 -2 12 2 22 8 22 6 0 9 4 5 9 -10 17 12 21 25 6 10 -12 10 -18 0
-30 -9 -11 -9 -15 -1 -15 7 0 9 -5 6 -10 -4 -6 4 -19 17 -30 13 -11 18 -19 11
-20 -7 0 -20 8 -30 19 -17 18 -19 18 -47 0 l-30 -18 28 -11 c28 -10 28 -11 10
-33 -10 -12 -12 -16 -4 -9 8 6 23 12 33 12 17 0 18 -2 6 -17 -12 -14 -12 -16
1 -11 8 2 17 17 20 31 5 27 23 26 32 -3 7 -22 43 24 45 58 0 15 3 49 5 75 4
40 2 47 -11 42 -11 -4 -13 -3 -5 5 12 12 74 -6 74 -22 0 -7 -5 -7 -13 1 -10 7
-17 7 -24 0 -12 -12 -5 -49 9 -49 6 0 7 -7 4 -16 -8 -22 13 -46 34 -39 11 3
20 -1 24 -10 7 -19 -11 -19 -48 0 -15 8 -29 15 -30 15 0 0 -1 -11 -1 -25 0
-28 5 -31 24 -12 11 10 12 8 4 -8 -6 -11 -8 -26 -5 -34 3 -9 0 -11 -8 -6 -10
6 -12 4 -7 -9 4 -10 7 -20 7 -22 0 -3 5 -2 10 1 6 3 10 1 10 -5 0 -7 7 -10 15
-6 8 3 15 1 15 -4 0 -6 6 -10 13 -10 6 1 0 11 -15 23 -32 26 -36 46 -10 49 9
0 24 2 32 2 21 2 31 -16 18 -31 -6 -8 -8 -16 -5 -20 4 -3 15 5 26 18 11 13 23
21 27 17 4 -4 1 -14 -6 -23 -10 -13 -9 -15 8 -15 12 0 24 5 27 10 8 13 45 13
45 1 0 -5 -10 -11 -22 -13 -13 -2 -29 -15 -36 -31 -11 -22 -17 -26 -27 -17 -7
6 -16 7 -19 2 -3 -5 10 -14 29 -20 28 -8 35 -7 35 4 0 17 12 18 29 2 11 -11
13 -10 9 2 -3 8 -15 15 -27 14 -11 0 -21 3 -21 8 0 4 25 8 55 8 41 0 53 -3 49
-13 -3 -8 2 -14 10 -14 13 0 14 8 10 39 -6 32 -4 37 9 33 8 -4 18 -1 23 6 4 7
2 15 -4 17 -7 2 -12 8 -12 14 0 6 8 4 18 -4 21 -19 43 -13 35 10 -6 15 -3 14
15 -2 16 -14 19 -23 12 -31 -8 -9 -6 -15 7 -19 10 -4 19 -2 21 3 6 19 32 12
32 -9 0 -15 -7 -20 -29 -20 -18 0 -31 -6 -35 -17 -3 -10 -8 -23 -11 -29 -4 -7
6 -13 24 -16 16 -2 28 -1 25 4 -3 4 -12 8 -21 8 -14 0 -13 3 3 21 12 13 27 19
42 16 21 -4 23 -2 17 20 -5 21 -3 24 15 18 15 -5 19 -3 14 9 -3 9 -12 16 -20
16 -18 0 -18 14 1 30 12 10 15 9 15 -5 0 -11 5 -15 16 -11 9 3 12 2 9 -5 -4
-6 1 -16 11 -24 16 -11 22 -11 36 2 9 8 22 12 30 7 7 -4 10 -4 6 0 -8 10 22
46 39 46 7 0 13 -7 13 -15 0 -10 -6 -12 -17 -8 -15 6 -16 4 -5 -9 11 -14 9
-19 -9 -32 -13 -8 -20 -18 -17 -21 8 -8 58 13 58 24 0 6 7 8 15 5 8 -4 23 0
32 7 14 12 15 11 9 -8 -5 -16 0 -26 24 -43 16 -12 30 -20 31 -18 0 2 2 11 4
20 2 9 10 26 18 38 8 12 14 29 12 38 -1 9 0 11 2 5 5 -15 23 -17 23 -3 0 6 5
10 10 10 17 0 11 -18 -16 -45 -21 -21 -23 -29 -14 -40 10 -12 10 -18 0 -30
-10 -13 -9 -15 9 -15 14 0 21 6 21 20 0 21 7 25 27 12 13 -8 13 -44 -1 -54
-14 -10 22 -58 43 -58 14 0 18 5 14 20 -4 16 -8 18 -19 9 -18 -15 -32 -3 -16
13 7 7 12 21 12 31 0 15 5 18 25 15 18 -4 25 -1 25 10 0 8 -3 12 -7 9 -3 -4
-15 0 -25 9 -14 14 -16 20 -6 32 10 11 8 17 -7 28 -11 8 -25 12 -32 10 -7 -3
-13 1 -13 9 0 8 7 15 15 15 8 0 15 -5 15 -11 0 -7 11 -9 28 -5 15 3 21 3 14 0
-13 -6 -7 -24 8 -24 11 0 31 60 24 71 -3 5 2 9 10 9 9 0 16 5 16 10 0 6 7 10
16 10 14 0 14 -2 0 -22 -18 -26 -21 -58 -5 -58 6 0 8 -9 4 -20 -5 -15 -3 -18
9 -14 9 3 16 1 16 -5 0 -6 -4 -11 -9 -11 -10 0 -51 -61 -51 -76 0 -4 5 -3 12
4 17 17 29 15 22 -3 -7 -18 -35 -20 -51 -4 -6 6 -17 9 -23 7 -9 -3 -8 -9 5
-21 10 -10 25 -15 35 -12 26 8 36 -14 14 -30 -11 -9 -14 -14 -6 -15 6 0 21 9
32 20 11 11 24 20 30 20 17 0 11 -19 -10 -30 -21 -11 -28 -40 -10 -40 6 0 10
7 10 15 0 8 5 15 11 15 6 0 8 -8 4 -19 -5 -16 1 -21 27 -26 18 -4 36 -12 39
-18 4 -5 12 -6 19 -2 10 6 8 11 -6 22 -16 12 -17 15 -4 23 10 6 17 4 23 -6 5
-9 16 -13 28 -9 11 4 19 2 19 -4 0 -6 -9 -11 -19 -11 -21 0 -36 -26 -20 -35 5
-4 12 1 15 10 4 9 13 13 24 10 11 -3 20 0 24 10 7 19 23 20 23 0 0 -8 -6 -15
-13 -15 -6 0 -14 -7 -18 -15 -3 -8 -10 -15 -17 -15 -6 0 -8 7 -5 18 7 16 6 16
-11 -1 -14 -14 -15 -21 -6 -36 8 -13 9 -21 2 -23 -22 -7 3 -57 34 -69 25 -9
28 -13 14 -16 -10 -3 -27 2 -36 11 -11 10 -25 14 -36 10 -14 -6 -16 -3 -10 14
5 16 2 22 -9 22 -23 0 -20 21 4 27 24 6 25 13 7 37 -11 14 -18 16 -32 9 -12
-7 -14 -13 -6 -17 16 -10 14 -26 -2 -20 -8 3 -19 -2 -26 -10 -10 -12 -9 -14 7
-10 13 4 22 -2 30 -21 10 -22 9 -29 -7 -46 -11 -12 -17 -29 -14 -40 6 -21 25
-27 22 -6 -3 26 1 38 12 31 8 -4 7 -9 -2 -15 -11 -7 -10 -9 3 -9 9 0 20 5 23
10 3 6 14 10 23 9 14 0 13 -2 -3 -9 -11 -5 -14 -9 -7 -9 6 -1 12 -6 12 -12 0
-5 -3 -8 -7 -6 -5 3 -18 1 -30 -4 -16 -6 -23 -17 -23 -35 0 -19 -4 -25 -15
-20 -8 3 -26 -6 -41 -19 -15 -14 -30 -22 -35 -19 -5 3 -6 -3 -2 -12 5 -13 3
-15 -7 -9 -8 5 -11 4 -6 -3 3 -6 1 -16 -6 -24 -16 -17 -23 -52 -9 -43 6 3 11
13 11 21 0 17 12 18 28 2 8 -8 12 -8 12 -1 0 6 9 13 20 16 18 5 30 29 13 26
-20 -3 -22 3 -7 26 9 14 20 22 26 19 5 -3 1 -12 -9 -20 -10 -7 -13 -14 -6 -14
19 0 54 56 46 76 -5 14 -3 16 11 11 10 -4 22 -7 28 -7 6 0 3 -11 -6 -25 -13
-19 -13 -25 -3 -25 18 0 13 -55 -7 -75 -20 -21 -21 -35 -1 -35 18 0 19 -12 3
-28 -18 -18 -30 -14 -23 8 4 11 2 20 -4 20 -6 0 -11 7 -11 15 0 17 -16 20 -25
6 -3 -5 -1 -13 5 -16 8 -5 8 -11 0 -20 -8 -9 -6 -14 5 -19 8 -3 15 -10 15 -16
0 -6 -5 -8 -12 -4 -7 4 -8 3 -4 -5 4 -6 11 -9 16 -6 4 3 13 -1 19 -9 8 -10 8
-16 -3 -25 -14 -12 -61 2 -79 24 -5 6 -7 3 -3 -7 3 -10 1 -20 -4 -23 -6 -4
-10 -12 -10 -18 0 -7 7 -4 14 6 16 21 30 22 51 1 14 -15 14 -17 -2 -30 -25
-19 -44 -18 -36 2 5 14 3 14 -16 2 -17 -10 -18 -14 -6 -16 18 -4 20 -23 3 -41
-11 -10 -9 -16 10 -31 25 -20 28 -36 10 -43 -8 -3 -6 -6 5 -6 9 -1 17 -8 17
-17 0 -8 -4 -12 -10 -9 -5 3 -10 -3 -10 -13 0 -27 -29 -37 -45 -15 -8 10 -17
14 -22 10 -4 -5 1 -16 12 -24 14 -11 16 -17 8 -20 -15 -5 -18 -43 -4 -43 5 0
17 -8 27 -17 16 -17 17 -15 11 27 -4 31 -3 40 5 29 8 -11 9 -10 4 4 -4 13 0
20 14 24 11 3 17 10 13 17 -4 7 -1 7 7 -1 10 -9 10 -15 2 -26 -7 -8 -9 -17 -5
-20 3 -4 -2 -16 -12 -27 -11 -12 -13 -20 -6 -20 6 0 11 -8 9 -17 -4 -23 -40
-60 -54 -55 -11 3 -26 -19 -29 -43 -1 -5 -5 -18 -9 -27 -4 -9 -5 -21 -2 -26 8
-14 -13 -19 -61 -16 -24 2 -43 -1 -43 -6 0 -6 8 -10 18 -10 11 0 17 -8 18 -24
1 -17 -2 -23 -12 -19 -17 6 -18 -9 -3 -24 8 -8 7 -11 -2 -10 -8 1 -15 -2 -16
-8 -1 -5 10 -9 24 -8 19 2 23 -1 16 -8 -7 -7 -24 -8 -43 -4 -28 6 -31 10 -27
33 l5 27 -19 -24 c-22 -26 -24 -37 -9 -46 8 -5 7 -11 -1 -21 -9 -11 -8 -14 5
-14 9 0 16 -5 16 -11 0 -5 5 -7 11 -3 8 4 7 9 -2 15 -12 8 -12 10 0 18 9 6 19
4 29 -5 12 -13 8 -20 -30 -54 -47 -44 -56 -47 -64 -25 -5 11 -10 12 -26 4 -15
-8 -17 -14 -9 -22 6 -6 11 -18 11 -27 -1 -12 -2 -12 -11 3 -13 23 -32 22 -24
-2 3 -10 -1 -24 -10 -31 -21 -17 -31 -5 -14 17 7 10 9 15 5 11 -5 -4 -15 0
-23 10 -13 16 -14 15 -9 -6 3 -18 1 -22 -10 -18 -8 3 -14 -1 -14 -9 0 -8 5
-15 11 -15 5 0 7 -5 3 -11 -4 -7 -9 -8 -13 -1 -10 16 -43 -13 -39 -34 2 -11
-4 -20 -15 -22 -10 -2 -17 0 -16 5 1 4 1 19 0 33 -1 18 -4 21 -13 12 -8 -8 -8
-15 2 -27 11 -13 9 -15 -11 -16 l-24 -1 24 -7 c25 -7 42 -31 22 -31 -6 0 -11
-7 -11 -15 0 -8 -5 -15 -11 -15 -5 0 -7 -5 -4 -10 3 -6 1 -10 -4 -10 -11 0
-15 14 -11 39 1 11 -2 10 -15 -3 -9 -9 -22 -16 -28 -16 -7 0 -4 -7 6 -14 9 -7
17 -21 17 -31 0 -10 -3 -15 -6 -12 -11 10 -44 -12 -45 -31 0 -10 -3 -12 -6 -4
-2 6 -9 12 -15 12 -6 0 -8 -7 -5 -14 4 -11 1 -13 -10 -9 -14 5 -15 1 -10 -28
l7 -34 -19 22 -19 23 -16 -25 c-9 -13 -16 -34 -16 -46 0 -11 -11 -30 -25 -40
-15 -13 -22 -26 -18 -36 4 -9 -1 -19 -10 -25 -10 -5 -17 -16 -17 -23 0 -8 -4
-15 -10 -15 -5 0 -7 -6 -4 -14 9 -23 -14 -56 -33 -49 -11 4 -14 3 -9 -6 4 -6
2 -19 -5 -28 -11 -13 -10 -17 4 -28 19 -14 24 -30 5 -19 -8 5 -9 0 -6 -14 4
-14 2 -22 -7 -22 -19 0 -43 -62 -26 -68 9 -3 8 -9 -5 -23 -9 -10 -13 -19 -8
-19 5 0 2 -5 -6 -10 -13 -8 -12 -10 3 -10 11 0 17 -6 14 -12 -2 -7 -14 -12
-25 -10 -16 2 -22 -2 -22 -17 0 -30 21 -71 37 -71 7 0 13 -4 13 -10 0 -5 -7
-10 -16 -10 -24 0 -39 -21 -41 -58 -2 -28 0 -32 11 -23 10 9 15 8 20 -4 3 -9
0 -15 -9 -15 -16 0 -16 -1 -20 -37 -1 -15 3 -23 14 -23 13 0 14 -2 2 -9 -12
-8 -9 -61 23 -366 38 -368 38 -385 -1 -385 -12 0 -13 -3 -4 -14 6 -7 9 -20 5
-29 -3 -8 0 -18 5 -22 6 -3 9 -11 6 -16 -4 -5 2 -9 12 -10 16 0 16 -1 -1 -8
-13 -5 -16 -10 -8 -15 6 -3 9 -12 6 -19 -3 -9 8 -13 37 -12 28 0 44 -5 47 -14
3 -8 0 -11 -7 -7 -17 11 -13 -10 5 -25 13 -10 17 -10 25 2 8 12 13 10 29 -9
10 -13 17 -31 14 -40 -4 -12 -3 -13 3 -4 10 14 96 25 88 11 -3 -5 -1 -18 5
-29 8 -16 20 -20 48 -19 20 2 42 6 48 11 7 5 23 4 38 -2 15 -5 39 -8 54 -5 15
3 21 2 15 -1 -26 -12 -12 -22 26 -19 27 2 42 -2 45 -11 3 -8 1 -14 -5 -14 -6
0 -8 -7 -5 -16 5 -13 4 -14 -7 -6 -8 7 -17 9 -20 5 -12 -11 -7 -23 9 -23 8 0
12 -5 9 -10 -3 -5 -2 -10 4 -10 5 0 15 13 23 30 15 34 28 39 28 10 0 -13 5
-18 15 -14 8 4 13 10 10 14 -8 13 25 21 45 10 12 -6 16 -17 13 -30 -4 -16 0
-20 18 -21 13 0 41 -2 62 -3 21 -1 41 2 43 6 3 5 12 4 20 -3 7 -6 21 -9 29 -5
18 6 20 -5 4 -21 -13 -13 -42 -6 -33 8 3 5 0 9 -5 9 -14 0 -14 -47 -1 -55 6
-4 9 -14 8 -22 -2 -9 2 -18 9 -20 10 -4 30 51 25 70 -4 13 11 7 23 -10 11 -14
16 -15 28 -5 13 11 15 10 10 -7 -3 -12 -11 -21 -18 -21 -7 0 -18 -7 -25 -15
-10 -13 -9 -15 9 -15 12 0 32 -5 43 -11 18 -10 20 -9 15 5 -4 9 -10 23 -14 33
-4 11 -3 14 6 9 7 -5 18 0 27 10 14 18 15 17 10 -13 -7 -39 10 -44 24 -8 12
32 19 32 15 0 -1 -17 3 -25 14 -26 56 -5 73 -4 77 3 10 16 24 7 21 -14 -2 -19
2 -22 23 -19 l25 3 -24 -19 c-17 -14 -21 -22 -13 -27 7 -4 12 -1 12 7 0 18 44
41 64 34 8 -3 20 1 26 9 16 18 34 18 27 -1 -7 -17 9 -30 18 -15 5 7 12 5 21
-7 12 -16 15 -16 25 -3 8 11 12 12 16 3 2 -7 13 -13 23 -13 13 0 17 5 13 19
-4 15 1 18 26 17 17 -1 31 -5 31 -10 0 -5 3 -6 7 -3 3 4 14 0 24 -9 10 -9 19
-11 23 -5 4 5 2 12 -4 16 -13 8 -13 25 0 25 6 0 13 -8 17 -17 8 -22 39 -53 52
-53 5 0 13 6 17 13 4 6 4 9 -1 5 -12 -11 -35 11 -28 28 3 8 10 14 15 14 6 0 8
-6 5 -13 -3 -7 4 -19 14 -25 10 -7 19 -8 19 -3 0 5 18 8 40 8 31 -1 40 -5 42
-20 3 -18 6 -17 37 12 18 17 37 28 42 25 5 -3 9 0 9 5 0 6 5 11 10 11 6 0 11
-17 11 -37 1 -21 5 -51 10 -68 5 -18 6 35 3 125 -8 208 -6 463 4 471 4 4 24
10 44 13 36 7 37 6 42 -26 6 -38 21 -206 36 -398 6 -74 14 -184 19 -244 6 -74
13 -111 22 -117 19 -11 21 -59 3 -66 -21 -8 -17 -23 8 -23 47 0 6 -11 -93 -24
-163 -23 -195 -23 -191 -3 2 13 -3 16 -25 12 -49 -8 -186 -24 -248 -30 -33 -3
-80 -8 -105 -11 -25 -4 -65 -8 -90 -10 -73 -6 -74 -6 -87 -16 -7 -5 -21 -7
-33 -3 -12 4 -20 2 -20 -5 0 -8 -9 -10 -23 -6 -14 3 -32 -1 -43 -9 -10 -8 -38
-15 -62 -15 -26 0 -41 -4 -40 -11 2 -8 -70 -21 -217 -40 -300 -38 -435 -63
-435 -80 0 -5 4 -9 9 -9 10 0 71 -55 71 -64 0 -3 -5 -6 -11 -6 -6 0 -17 -6
-25 -14 -12 -12 -12 -16 -1 -23 25 -15 27 -42 5 -57 -14 -10 -22 -28 -24 -58
-4 -33 -2 -40 8 -30 17 17 31 15 24 -4 -4 -9 -1 -23 5 -30 9 -11 8 -14 -5 -14
-10 0 -25 4 -35 10 -16 8 -18 5 -15 -26 3 -42 12 -54 23 -35 14 22 34 -25 26
-59 -5 -23 -12 -29 -28 -27 -17 2 -23 -4 -25 -25 -2 -21 1 -28 13 -28 12 0 15
-6 10 -20 -4 -13 -2 -20 7 -20 9 -1 7 -5 -4 -14 -18 -13 -24 -28 -10 -24 13 4
52 -13 52 -23 0 -5 -9 -9 -19 -9 -11 0 -23 -4 -26 -10 -3 -5 3 -10 14 -10 27
0 27 -17 1 -25 -22 -7 -20 -34 3 -63 8 -10 5 -14 -11 -19 -19 -5 -28 -26 -23
-56 0 -4 -6 -7 -14 -7 -13 0 -14 -4 -5 -21 7 -11 9 -32 5 -46 -4 -16 -1 -29 8
-37 8 -6 18 -24 21 -40 6 -23 4 -27 -8 -23 -19 7 -52 -53 -36 -63 6 -4 10 -11
9 -16 -4 -14 12 -58 25 -66 6 -4 331 -8 721 -8 l711 0 0 133 c-1 113 3 149 28
247 16 63 45 158 66 210 21 52 40 103 44 113 5 17 15 18 98 13 220 -13 393
-24 396 -25 9 -4 -1 -21 -14 -21 -8 0 -12 -4 -9 -10 7 -12 -13 -90 -23 -90 -5
0 -14 6 -22 12 -8 7 -7 4 3 -8 21 -26 22 -61 1 -102 -11 -23 -12 -36 -5 -50 7
-13 6 -46 -2 -105 -12 -82 -12 -86 6 -91 15 -4 18 -10 13 -28 -3 -13 -9 -40
-12 -61 -6 -32 -4 -37 10 -31 10 4 15 13 12 21 -7 17 17 28 42 18 16 -6 16 -7
0 -19 -10 -7 -18 -21 -18 -30 0 -9 -7 -16 -15 -16 -8 0 -15 -4 -15 -10 0 -22
28 -8 40 20 7 16 16 28 20 27 4 -1 8 2 8 7 0 16 26 26 34 13 5 -7 7 -4 6 10
-2 12 2 22 7 22 6 1 11 -3 11 -9 3 -21 4 -21 20 -5 12 12 13 19 4 30 -9 11 -7
13 17 10 15 -2 31 -4 36 -4 14 -2 7 -21 -8 -21 -23 0 -37 -35 -25 -64 11 -30
10 -30 45 -12 27 14 20 31 -9 20 -21 -8 -21 13 0 33 13 13 20 14 35 5 11 -7
20 -8 24 -2 3 6 1 10 -4 10 -6 0 -11 7 -11 15 0 19 10 19 38 -1 26 -18 34 -14
39 19 2 12 14 30 26 39 15 12 18 20 11 25 -16 11 -28 53 -15 53 6 0 11 -9 11
-20 0 -11 3 -20 8 -21 58 -6 53 -10 57 43 2 22 -1 26 -11 17 -9 -8 -15 -5 -23
10 -15 27 -14 31 8 31 10 0 25 8 32 17 12 14 12 16 -1 11 -9 -3 -24 0 -35 8
-14 10 -15 14 -4 15 8 0 28 2 45 4 21 3 37 -2 51 -15 21 -19 21 -19 20 8 -2
34 -14 42 -49 35 -18 -4 -28 -1 -28 6 0 7 8 10 18 7 9 -3 24 -1 32 4 9 5 19 5
27 -2 8 -7 13 -7 13 0 0 5 9 12 19 15 14 3 18 1 14 -10 -4 -11 0 -14 13 -11
11 2 20 13 22 26 2 12 8 22 13 22 6 0 7 -9 4 -20 -8 -26 10 -26 29 1 8 12 19
18 24 15 6 -3 16 7 24 24 15 34 34 34 30 0 -1 -13 3 -27 9 -30 6 -4 -8 -7 -31
-7 -49 0 -56 -6 -63 -55 -6 -37 5 -52 16 -24 3 8 16 16 29 18 15 2 23 9 22 21
-1 9 2 17 6 17 12 0 38 -34 41 -54 2 -11 10 -21 18 -24 10 -3 12 1 8 17 -3 14
-1 21 6 18 16 -5 22 -47 6 -47 -9 0 -8 -4 1 -15 16 -19 30 -19 30 0 0 8 9 15
19 15 24 0 37 36 20 56 -6 8 -9 18 -5 21 4 4 11 1 17 -7 6 -10 11 -12 17 -4
14 20 55 24 75 7 15 -14 22 -15 37 -5 12 7 21 8 25 2 11 -18 25 -10 25 15 0
16 -6 25 -15 25 -19 0 -19 14 -2 29 16 13 28 5 21 -13 -7 -18 22 -41 31 -25 4
6 1 15 -6 20 -11 6 -11 11 -1 21 18 18 15 28 -8 28 -11 0 -29 5 -40 12 -16 11
-23 9 -40 -9 -27 -30 -25 -37 5 -17 29 19 44 12 26 -10 -15 -18 -69 -38 -75
-27 -3 4 -1 13 5 21 16 26 10 40 -16 38 -19 -2 -24 -7 -19 -20 3 -12 0 -18
-10 -18 -9 0 -16 4 -16 10 0 5 -8 6 -17 3 -16 -6 -16 -5 -5 10 19 23 5 40 -26
32 -22 -5 -24 -4 -13 8 6 8 27 18 46 21 19 4 35 10 35 15 0 4 15 13 34 20 18
8 33 20 32 29 0 8 5 17 12 19 6 3 12 -2 12 -11 0 -22 17 -20 30 4 8 14 8 20
-1 20 -12 0 -48 40 -49 54 0 5 6 4 13 -1 20 -17 75 -24 79 -11 5 13 68 -27 68
-43 0 -16 -19 -10 -32 11 -7 11 -18 20 -25 20 -20 0 -15 -28 7 -40 25 -14 26
-30 1 -30 -28 0 -31 -22 -7 -41 15 -12 25 -14 33 -7 13 10 33 3 33 -13 0 -5
-7 -9 -15 -9 -8 0 -15 -4 -15 -10 0 -5 14 -10 31 -10 22 0 32 5 36 20 6 24 19
26 27 4 10 -27 7 -36 -14 -29 -15 5 -20 2 -20 -10 0 -11 5 -15 15 -11 9 3 15
0 15 -10 0 -10 -6 -14 -15 -10 -8 3 -15 1 -15 -4 0 -11 11 -13 33 -4 9 3 13
13 10 25 -3 10 0 19 6 19 6 0 11 -7 11 -16 0 -17 22 -14 28 4 2 7 -3 12 -12
12 -11 0 -16 9 -16 30 0 36 11 38 45 8 25 -21 25 -23 8 -37 -17 -13 -16 -13 5
-8 17 4 22 1 22 -15 0 -17 -4 -19 -25 -14 -32 8 -55 -12 -56 -51 l-1 -28 -9
27 c-9 24 -13 26 -35 16 -26 -12 -32 -28 -10 -28 7 0 19 -7 26 -15 7 -9 15
-13 18 -11 2 3 12 -2 20 -11 20 -20 30 0 11 23 -10 12 -10 17 1 27 10 10 12 8
6 -8 -6 -16 -5 -17 5 -8 10 10 9 15 -1 28 -10 12 -10 15 1 15 24 -1 49 -26 49
-49 0 -14 6 -21 19 -21 11 0 23 -5 26 -11 5 -6 12 -3 21 9 14 21 9 51 -10 64
-6 4 -3 14 8 27 11 12 14 21 8 21 -15 0 -92 69 -92 82 0 11 -25 38 -36 38 -4
0 -15 -7 -25 -15 -15 -15 -17 -13 -23 30 -6 39 -10 45 -27 40 -11 -4 -19 -2
-19 4 0 16 40 13 73 -3 15 -8 27 -11 27 -6 0 4 3 17 6 27 4 14 4 15 -4 4 -5
-7 -15 -10 -21 -6 -9 5 -9 10 -1 20 8 10 7 14 -2 18 -9 3 -10 8 -2 16 14 15
94 3 101 -15 3 -8 9 -14 15 -14 5 0 7 4 3 9 -3 5 2 11 10 13 13 3 13 6 1 31
-15 27 -11 34 10 19 23 -15 24 -54 1 -73 -12 -9 -18 -21 -14 -25 4 -5 12 -2
17 6 7 12 13 12 27 4 22 -14 15 -30 -11 -25 -20 3 -36 -14 -36 -38 0 -12 3
-12 12 -3 17 17 31 15 24 -3 -9 -24 6 -18 30 12 17 22 24 25 36 15 11 -9 17
-9 26 0 16 16 16 98 0 98 -9 0 -9 3 0 12 15 15 17 302 3 293 -5 -3 -12 -1 -16
5 -3 5 1 10 9 10 9 0 16 9 16 20 0 11 -5 20 -12 20 -9 0 -9 3 0 12 9 9 12 243
12 990 0 538 -3 978 -8 978 -4 0 -18 -10 -32 -22 -14 -13 -34 -24 -44 -26 -10
-2 -25 -10 -33 -17 -7 -8 -20 -12 -27 -9 -17 6 -31 -12 -16 -21 6 -4 8 -11 4
-16 -4 -6 -11 -6 -20 2 -18 15 -48 3 -40 -16 8 -22 -34 -45 -91 -50 -55 -4
-85 -13 -78 -25 3 -5 -4 -6 -16 -3 -18 5 -20 3 -15 -14 5 -15 1 -22 -14 -26
-11 -3 -18 -1 -15 3 8 13 -24 27 -51 22 -30 -5 -31 -18 -3 -32 11 -7 19 -14
16 -16 -2 -3 -18 3 -34 12 -27 16 -31 16 -57 -1 -15 -10 -32 -29 -37 -42 -11
-28 -33 -31 -24 -3 5 14 2 20 -10 20 -12 0 -15 -5 -9 -22 6 -20 5 -21 -9 -10
-13 11 -19 10 -36 -7 -11 -11 -27 -18 -35 -15 -8 3 -17 1 -20 -5 -4 -6 -14 -7
-22 -4 -9 3 -20 0 -25 -8 -8 -12 -11 -12 -19 1 -7 12 -10 12 -10 1 0 -7 -6
-11 -14 -8 -10 4 -13 1 -9 -9 3 -9 -1 -14 -13 -15 -47 -2 -65 -7 -82 -22 -23
-21 -32 -21 -32 -1 0 25 -69 15 -103 -16 l-27 -25 22 -7 c22 -7 22 -7 -2 -6
-55 1 -70 -3 -70 -17 0 -8 6 -15 13 -15 8 0 7 -4 -3 -10 -22 -14 -26 -13 -38
15 -9 19 -9 25 0 25 6 0 8 3 5 6 -4 4 -13 1 -22 -6 -11 -9 -19 -9 -28 -2 -7 7
-25 7 -47 2 -34 -8 -20 -14 25 -11 17 1 18 0 5 -11 -8 -7 -15 -20 -15 -28 0
-8 -4 -14 -10 -14 -90 11 -145 13 -145 4 0 -5 5 -10 10 -10 6 0 10 -4 10 -10
0 -5 -9 -10 -19 -10 -11 0 -23 -5 -26 -10 -3 -6 -17 -7 -31 -4 -14 4 -24 2
-24 -5 0 -16 -26 -14 -44 4 -19 20 -46 19 -46 -1 0 -10 -4 -12 -12 -7 -7 4
-20 6 -30 5 -9 -2 -19 2 -23 8 -5 8 -12 4 -22 -9 -17 -25 -29 -26 -50 -5 -14
14 -17 13 -28 -8 -6 -13 -17 -22 -24 -20 -7 1 -18 -2 -25 -7 -7 -6 -18 -4 -30
5 -23 16 -40 19 -31 4 3 -5 -3 -10 -14 -10 -12 0 -21 5 -21 11 0 5 -5 7 -11 3
-6 -3 -14 -2 -18 4 -9 16 -82 -7 -99 -30 -13 -18 -42 -25 -42 -10 0 4 9 13 21
20 12 7 18 16 15 19 -3 3 -13 0 -22 -8 -13 -11 -18 -11 -21 -1 -7 20 -22 14
-16 -7 3 -10 0 -22 -7 -26 -7 -4 -14 1 -17 14 -6 22 -18 27 -28 11 -4 -6 -15
-4 -30 6 -15 10 -25 12 -30 5 -14 -23 -24 -9 -19 28 4 32 0 44 -18 60 -26 25
-58 30 -38 6 6 -8 20 -17 31 -20 25 -8 25 -25 -1 -18 -11 3 -20 0 -20 -6 0 -6
-5 -11 -11 -11 -7 0 -9 9 -5 24 4 15 1 26 -6 28 -10 4 -10 11 0 34 l14 29 -27
-25 c-18 -17 -24 -20 -19 -7 3 10 1 17 -5 17 -6 0 -11 14 -11 30 0 30 -21 42
-35 20 -10 -17 -20 -12 -39 21 -10 16 -29 34 -42 39 -14 6 -27 17 -30 25 -4 8
-12 15 -19 15 -11 0 -27 22 -29 42 -1 4 -7 13 -15 20 -10 9 -15 10 -18 2 -3
-9 -16 -8 -50 2 -25 8 -49 11 -54 8 -5 -3 -9 -1 -9 3 0 5 9 14 20 21 12 7 20
8 20 2 0 -5 7 -10 15 -10 8 0 15 5 15 10 0 6 -7 13 -15 16 -8 4 -15 15 -15 25
0 10 -7 19 -15 19 -9 0 -18 7 -21 15 -8 19 -24 19 -24 0 0 -8 -7 -15 -15 -15
-19 0 -20 29 0 36 8 3 24 21 35 39 22 36 27 56 8 37 -18 -18 -28 -14 -28 11 0
15 -12 29 -39 44 -22 13 -46 37 -55 54 -19 37 -20 42 -6 34 13 -8 13 18 0 31
-11 11 41 11 59 0 7 -5 8 -1 5 9 -5 13 -1 15 22 10 28 -6 28 -6 9 10 -19 16
-19 16 10 13 30 -3 30 -2 30 45 0 34 4 46 13 42 6 -2 12 -1 12 4 0 12 -72 40
-95 37 -11 -1 -26 -5 -33 -10 -6 -4 -12 -4 -12 -1 0 10 28 35 39 35 6 0 8 7 5
15 -4 8 -1 22 6 30 7 8 9 23 5 36 -6 17 -4 21 9 16 20 -8 25 1 27 49 2 54 8
74 23 74 17 0 9 51 -10 66 -19 15 0 60 28 67 10 3 18 9 17 14 -1 4 2 19 8 33
17 41 180 120 279 136 23 3 46 9 51 13 7 4 6 40 -3 111 -28 207 -53 416 -59
485 -11 137 -26 273 -61 550 -17 135 -23 189 -29 240 -1 17 -8 73 -14 125 -6
52 -18 196 -27 320 -19 263 -30 379 -37 386 -5 6 -282 -20 -402 -37 -139 -19
-135 -18 -135 -44 0 -13 -4 -27 -10 -30 -5 -3 -10 1 -10 9 0 31 -26 44 -72 35
-24 -4 -60 -8 -80 -9 -35 0 -52 -14 -27 -22 6 -2 3 -14 -9 -28 -11 -14 -20
-29 -20 -35 0 -5 -5 -11 -10 -13 -5 -1 -8 18 -7 43 2 35 -1 45 -14 45 -29 0
-61 -12 -56 -20 7 -12 -15 -25 -42 -25 -29 -1 -30 11 -1 18 12 4 20 9 17 11
-3 3 -73 -3 -156 -14 -83 -11 -192 -24 -243 -30 -51 -6 -101 -15 -111 -21 -13
-6 -19 -6 -19 1 0 16 -57 12 -74 -6 -9 -8 -16 -11 -16 -5 0 13 -69 14 -90 1
-9 -6 -17 -5 -22 3 -6 9 -12 7 -22 -6 -14 -19 -73 -26 -96 -12 -7 5 -11 4 -8
-1 4 -5 -21 -9 -53 -10 -33 -1 -57 1 -54 4 8 8 -16 32 -31 32 -8 0 -11 -6 -8
-15 4 -8 1 -15 -5 -15 -6 0 -11 5 -11 11 0 6 -6 9 -14 6 -8 -3 -16 -2 -18 2
-2 5 -48 11 -103 15 -268 15 -348 24 -339 37 6 10 -51 38 -100 48 -35 8 -45
28 -19 38 38 13 41 22 22 61 -20 39 -48 56 -76 45 -10 -4 -14 -2 -10 4 4 6 30
14 57 18 57 8 64 14 51 48 -8 20 -23 28 -78 42 -37 10 -69 19 -71 21 -2 1 -4
36 -4 78 -2 71 0 78 28 107 42 45 237 189 319 236 126 73 319 156 555 239 203
71 436 67 591 -11 68 -35 91 -69 148 -217 28 -73 66 -162 84 -197 17 -34 31
-71 29 -81 -1 -9 4 -38 13 -64 12 -34 13 -51 6 -60 -6 -7 -7 -16 -3 -21 4 -4
-10 -5 -30 -1 -24 4 -38 3 -38 -4 0 -5 6 -10 14 -10 7 0 19 -7 26 -15 10 -13
9 -15 -9 -15 -11 0 -21 -4 -21 -10 0 -17 23 -11 47 12 17 16 22 18 18 6 -4 -9
-2 -19 4 -23 6 -3 14 1 17 9 3 9 13 16 22 16 8 0 12 -3 9 -7 -10 -10 65 -33
78 -24 17 14 55 20 61 10 10 -17 25 -9 19 11 -4 11 -2 20 4 20 6 0 11 -4 11
-9 0 -13 43 -22 50 -10 5 6 15 6 33 0 25 -10 57 -8 77 4 5 3 15 -3 22 -15 17
-26 32 -26 18 0 -10 18 -8 20 24 20 19 0 37 4 41 10 9 14 32 1 38 -21 7 -26
34 -26 359 7 60 5 64 -1 71 -131 4 -55 13 -161 21 -235 8 -74 22 -200 30 -280
29 -274 66 -595 87 -750 38 -291 87 -713 104 -894 l7 -68 61 6 c34 4 96 8 137
11 42 3 100 9 129 15 30 5 70 10 90 10 20 0 47 7 61 15 27 15 40 21 82 37 34
12 158 136 158 157 0 9 9 27 19 40 10 14 17 31 14 39 -3 7 4 26 16 42 11 16
21 36 21 45 0 18 11 20 27 4 12 -12 37 -3 28 11 -3 5 -1 11 5 15 5 3 10 13 10
22 0 13 -3 13 -15 3 -23 -19 -27 -7 -10 26 8 16 15 35 15 42 0 6 8 12 18 12
10 0 26 15 36 35 15 28 24 34 39 29 16 -5 19 -3 13 11 -9 23 3 39 19 25 11 -9
12 -4 8 28 -5 34 -2 42 22 60 29 23 70 29 80 12 3 -5 11 -10 17 -10 6 0 -1 9
-16 21 -28 22 -35 45 -11 35 9 -3 15 0 15 10 0 8 6 22 14 30 8 7 16 19 18 26
4 10 8 10 21 -1 15 -12 17 -10 17 19 0 24 3 30 13 23 17 -13 43 -9 39 6 -2 8
3 11 13 8 9 -4 15 -1 15 8 0 18 37 38 60 32 22 -6 50 10 50 28 0 8 7 15 15 15
8 0 14 -3 12 -7 -1 -5 3 -8 8 -8 6 0 9 6 8 13 -1 9 6 12 18 9 10 -3 22 -1 25
4 3 5 18 9 35 9 16 0 29 5 29 10 0 7 6 7 19 1 15 -9 22 -6 34 12 12 18 18 20
28 10 7 -7 21 -13 31 -13 25 0 68 22 62 32 -7 11 5 48 17 48 5 0 9 -8 9 -18 0
-10 8 -18 18 -19 15 -1 18 4 14 23 -3 19 0 24 17 24 11 0 21 -4 21 -10 0 -5 5
-10 11 -10 5 0 7 5 3 12 -5 8 -2 9 9 5 10 -4 27 3 43 18 22 21 30 23 48 13 30
-16 77 -11 101 12 25 24 39 26 31 5 -9 -23 22 -18 35 6 l11 21 19 -21 c11 -12
29 -21 39 -21 19 0 20 9 19 333 l0 332 -30 23 c-16 14 -36 21 -45 18 -8 -3
-25 -1 -36 5 -15 8 -19 8 -14 0 4 -6 2 -11 -4 -11 -7 0 -14 8 -17 19 -3 12
-11 17 -23 14 -12 -3 -27 5 -41 21 -27 31 -36 32 -43 8 -9 -27 -96 -27 -96 0
0 10 -4 18 -10 18 -5 0 -10 -7 -10 -15 0 -17 -45 -21 -55 -4 -4 6 -13 8 -21 5
-8 -3 -20 3 -26 14 -14 22 -38 27 -38 8 0 -7 -6 -3 -14 8 -8 11 -33 26 -55 34
-32 10 -41 18 -41 35 0 22 -28 39 -58 36 -7 -1 -12 4 -10 11 1 7 -4 23 -11 36
-12 23 -13 23 -26 5 -13 -17 -14 -16 -24 9 -10 27 -31 47 -31 29 0 -23 -20
-10 -26 17 -4 15 -10 32 -14 37 -13 19 -11 85 2 85 18 0 -12 20 -31 20 -11 0
-11 -3 -1 -15 10 -12 10 -15 -3 -15 -21 0 -30 42 -12 53 23 13 19 40 -5 32
-20 -6 -20 -6 -36 73 -2 12 -11 22 -19 22 -16 0 -46 39 -39 52 5 7 -14 12 -45
11 -9 -1 -10 2 -2 10 15 15 14 30 -1 25 -20 -7 -37 17 -31 41 5 19 2 21 -21
17 -17 -3 -29 1 -35 11 -5 10 -15 14 -25 10 -10 -4 -16 -1 -16 9 0 8 -6 14
-12 13 -7 -1 -26 3 -41 9 -16 7 -37 12 -48 12 -13 0 -18 4 -13 11 5 9 -1 10
-22 5 -23 -6 -27 -5 -16 5 16 17 16 34 -1 20 -8 -6 -17 -8 -21 -4 -4 4 -17 8
-29 8 -15 0 -22 6 -21 18 1 9 -4 17 -12 17 -8 0 -14 -7 -14 -16 0 -8 -5 -12
-11 -9 -6 4 -8 13 -6 19 7 17 -9 41 -25 41 -7 0 -17 10 -23 22 -5 12 -19 27
-31 34 -27 14 -44 45 -47 83 -3 34 -27 49 -27 16 0 -33 -17 -14 -18 20 0 18
-8 42 -16 55 -9 14 -16 31 -16 40 0 8 -11 20 -25 25 -14 5 -25 15 -25 22 -1
14 -80 98 -80 85 0 -15 -28 19 -32 39 -2 11 -13 20 -26 22 -17 3 -21 8 -17 23
4 11 2 19 -4 19 -6 0 -11 6 -11 14 0 8 -16 24 -36 35 -30 18 -34 24 -23 37 10
12 8 18 -10 31 -14 10 -21 22 -18 34 3 10 -1 23 -9 30 -11 9 -14 8 -14 -2 0
-24 -23 8 -26 37 -2 15 -10 31 -18 36 -9 5 -12 16 -8 30 3 14 1 19 -6 14 -6
-3 -14 -1 -18 5 -3 6 0 15 7 20 11 7 8 14 -16 33 -16 13 -35 21 -42 19 -16 -6
-17 9 -1 25 7 7 8 12 2 12 -6 0 -15 -5 -22 -12 -6 -6 -13 -10 -15 -7 -2 2 -20
25 -41 52 -21 26 -34 47 -28 47 6 0 19 -11 30 -25 11 -14 24 -25 30 -25 6 0
13 -6 15 -12 3 -7 6 -8 6 -2 1 12 -36 54 -48 54 -5 0 -11 9 -14 20 -3 11 -13
20 -22 20 -12 0 -15 5 -10 20 4 13 1 22 -10 26 -16 7 -55 82 -55 107 0 8 -11
18 -25 21 -14 4 -23 11 -20 15 3 5 -1 16 -9 24 -18 18 -8 31 11 16 9 -9 13 -8
13 0 0 6 -11 16 -25 21 -26 10 -32 24 -14 35 7 5 4 14 -7 27 -15 15 -16 21 -5
28 10 6 9 9 -8 15 -21 6 -31 45 -11 45 5 0 7 -7 4 -15 -9 -23 9 -18 25 6 11
19 11 21 -2 16 -17 -7 -52 27 -43 42 4 5 -1 30 -9 55 -9 26 -13 51 -10 56 3 6
2 10 -3 10 -16 0 -23 32 -11 47 9 10 9 17 1 25 -7 7 -12 20 -12 30 0 31 -29
33 -59 4 -33 -31 -41 -33 -41 -5 0 13 -8 23 -21 26 -21 6 -21 7 -4 19 9 7 17
24 16 38 -1 14 -1 37 -2 51 -1 14 -5 25 -9 25 -4 0 -8 10 -8 23 1 48 -7 85
-16 79 -27 -16 -52 -9 -70 21 -17 30 -17 32 0 44 10 7 24 13 31 13 7 0 13 7
13 15 0 18 -12 19 -27 4 -13 -13 -36 -2 -27 12 3 6 -2 19 -13 31 -10 11 -17
22 -15 24 9 14 -1 14 -17 0 -17 -16 -20 -16 -35 -1 -19 19 -21 36 -5 33 6 -2
14 3 16 10 3 7 -5 12 -20 12 -20 0 -27 -6 -32 -30z m94 -82 c12 -15 11 -18 -3
-18 -10 0 -16 8 -16 22 0 12 1 19 3 17 1 -2 9 -12 16 -21z m-59 -38 c0 -5 -4
-10 -10 -10 -5 0 -10 5 -10 10 0 6 5 10 10 10 6 0 10 -4 10 -10z m-30 -40 c0
-5 -4 -10 -10 -10 -5 0 -10 5 -10 10 0 6 5 10 10 10 6 0 10 -4 10 -10z m120
-60 c0 -5 -5 -10 -11 -10 -5 0 -7 5 -4 10 3 6 8 10 11 10 2 0 4 -4 4 -10z
m-265 -348 c-8 -8 -25 10 -19 20 4 6 9 5 15 -3 4 -7 6 -15 4 -17z m-75 -106
c0 -3 -4 -8 -10 -11 -5 -3 -10 -1 -10 4 0 6 5 11 10 11 6 0 10 -2 10 -4z
m-640 -321 c0 -8 -4 -15 -10 -15 -5 0 -10 7 -10 15 0 8 5 15 10 15 6 0 10 -7
10 -15z m110 1 c0 -11 -19 -15 -25 -6 -3 5 1 10 9 10 9 0 16 -2 16 -4z m-145
-26 c3 -5 -1 -10 -9 -10 -9 0 -16 5 -16 10 0 6 4 10 9 10 6 0 13 -4 16 -10z
m-511 -15 c3 -8 1 -15 -3 -15 -5 0 -11 7 -15 15 -3 8 -1 15 3 15 5 0 11 -7 15
-15z m70 6 c3 -5 -1 -11 -9 -14 -9 -4 -12 -1 -8 9 6 16 10 17 17 5z m326 0 c0
-5 -7 -12 -16 -15 -14 -5 -15 -4 -4 9 14 17 20 19 20 6z m-510 -25 c0 -3 -4
-8 -10 -11 -5 -3 -10 -1 -10 4 0 6 5 11 10 11 6 0 10 -2 10 -4z m60 -26 c0 -5
-4 -10 -9 -10 -6 0 -13 5 -16 10 -3 6 1 10 9 10 9 0 16 -4 16 -10z m-76 -9 c7
-10 -43 -45 -52 -37 -3 3 0 6 6 6 6 0 14 9 17 20 7 21 20 26 29 11z m2071 -11
c3 -5 1 -10 -4 -10 -6 0 -11 5 -11 10 0 6 2 10 4 10 3 0 8 -4 11 -10z m-1965
-40 c0 -5 -2 -10 -4 -10 -3 0 -8 5 -11 10 -3 6 -1 10 4 10 6 0 11 -4 11 -10z
m-340 -46 c0 -14 -3 -14 -15 -4 -8 7 -15 14 -15 16 0 2 7 4 15 4 8 0 15 -7 15
-16z m67 10 c-3 -3 -12 -4 -19 -1 -8 3 -5 6 6 6 11 1 17 -2 13 -5z m-145 -44
c5 0 2 -7 -6 -16 -14 -13 -18 -14 -31 -1 -16 16 -8 30 13 22 7 -3 18 -5 24 -5z
m28 -100 c0 -5 -2 -10 -4 -10 -3 0 -8 5 -11 10 -3 6 -1 10 4 10 6 0 11 -4 11
-10z m-82 -20 c7 -11 10 -20 6 -20 -7 0 -34 27 -34 34 0 13 16 5 28 -14z m-68
-90 c0 -5 -4 -10 -10 -10 -5 0 -10 5 -10 10 0 6 5 10 10 10 6 0 10 -4 10 -10z
m2750 0 c0 -5 -4 -10 -10 -10 -5 0 -10 5 -10 10 0 6 5 10 10 10 6 0 10 -4 10
-10z m-2910 -112 c0 -6 -6 -5 -15 2 -8 7 -15 14 -15 16 0 2 7 1 15 -2 8 -4 15
-11 15 -16z m-106 -79 c-6 -11 -24 -2 -24 11 0 5 7 7 15 4 8 -4 12 -10 9 -15z
m-472 -551 c-9 -9 -12 -7 -12 12 0 19 3 21 12 12 9 -9 9 -15 0 -24z m-155
-205 c-3 -3 -11 -2 -17 2 -9 6 -9 10 1 16 14 8 27 -7 16 -18z m3393 -137 c0
-12 -5 -7 -19 24 -11 24 -11 24 3 6 9 -11 16 -24 16 -30z m-980 -66 c0 -5 -4
-10 -9 -10 -5 0 -16 -3 -25 -6 -9 -3 -16 -1 -16 4 0 9 16 17 43 21 4 0 7 -3 7
-9z m50 6 c0 -2 -7 -6 -15 -10 -8 -3 -15 -1 -15 4 0 6 7 10 15 10 8 0 15 -2
15 -4z m-2605 -65 c3 -5 1 -12 -5 -16 -5 -3 -10 1 -10 9 0 18 6 21 15 7z
m3542 -63 c-3 -7 -5 -2 -5 12 0 14 2 19 5 13 2 -7 2 -19 0 -25z m-677 -114 c0
-17 -22 -14 -28 4 -2 7 3 12 12 12 9 0 16 -7 16 -16z m-90 -14 c0 -5 -7 -7
-15 -4 -8 4 -12 10 -9 15 6 11 24 2 24 -11z m-47 -15 c-3 -8 -9 -15 -14 -15
-10 0 -12 24 -3 33 11 11 24 -3 17 -18z m-2468 -15 c-5 -8 -11 -8 -17 -2 -6 6
-7 16 -3 22 5 8 11 8 17 2 6 -6 7 -16 3 -22z m2375 11 c0 -5 -8 -11 -17 -15
-10 -3 -25 -9 -33 -12 -8 -4 -4 5 9 19 22 24 41 28 41 8z m-2760 -1 c0 -5 -4
-10 -10 -10 -5 0 -10 5 -10 10 0 6 5 10 10 10 6 0 10 -4 10 -10z m2700 -3 c-9
-7 -14 -21 -12 -32 3 -20 3 -20 -13 -1 -23 30 -19 46 13 46 23 -1 25 -2 12
-13z m-153 -19 c0 -7 4 -22 9 -32 5 -14 4 -17 -4 -12 -7 4 -12 14 -12 23 0 9
-6 13 -15 9 -8 -3 -15 -2 -15 3 0 21 36 30 37 9z m-132 -8 c-27 -12 -35 -12
-35 0 0 6 12 10 28 9 24 0 25 -1 7 -9z m233 -10 c-7 -11 -16 -16 -21 -11 -12
12 0 31 19 31 12 0 12 -3 2 -20z m217 0 c3 -5 1 -10 -4 -10 -6 0 -11 5 -11 10
0 6 2 10 4 10 3 0 8 -4 11 -10z m-581 -16 c5 -12 1 -14 -15 -9 -13 4 -28 0
-41 -12 -20 -18 -20 -17 -17 2 3 16 26 29 60 34 4 1 10 -6 13 -15z m453 -6
c-3 -8 -6 -5 -6 6 -1 11 2 17 5 13 3 -3 4 -12 1 -19z m-57 -8 c0 -5 -5 -10
-11 -10 -5 0 -7 5 -4 10 3 6 8 10 11 10 2 0 4 -4 4 -10z m-133 -56 c-8 -8 -47
29 -40 39 3 4 14 -1 25 -13 11 -12 18 -24 15 -26z m-2227 28 c0 -5 -9 -17 -20
-27 -23 -21 -26 -14 -8 15 13 20 28 27 28 12z m2320 -16 c0 -8 -7 -17 -16 -20
-25 -10 -30 2 -8 19 24 18 24 18 24 1z m-215 -6 c3 -5 1 -10 -4 -10 -6 0 -11
5 -11 10 0 6 2 10 4 10 3 0 8 -4 11 -10z m62 -42 c-3 -8 -6 -5 -6 6 -1 11 2
17 5 13 3 -3 4 -12 1 -19z m303 1 c0 -6 -4 -7 -10 -4 -5 3 -10 11 -10 16 0 6
5 7 10 4 6 -3 10 -11 10 -16z m235 11 c3 -5 1 -10 -4 -10 -6 0 -11 5 -11 10 0
6 2 10 4 10 3 0 8 -4 11 -10z m-330 -20 c3 -5 -1 -10 -10 -10 -9 0 -13 5 -10
10 3 6 8 10 10 10 2 0 7 -4 10 -10z m-92 -14 c4 -10 1 -13 -9 -9 -15 6 -19 23
-5 23 5 0 11 -7 14 -14z m235 -22 c-4 -3 -12 5 -18 18 -12 22 -12 22 6 6 10
-10 15 -20 12 -24z m-2908 6 c0 -5 -7 -10 -15 -10 -8 0 -15 5 -15 10 0 6 7 10
15 10 8 0 15 -4 15 -10z m2864 -6 c4 -9 4 -19 1 -22 -6 -6 -35 18 -35 29 0 16
28 10 34 -7z m-2554 -3 c0 -6 -42 -75 -55 -90 -2 -1 -8 0 -14 4 -13 7 1 38 32
73 21 23 37 29 37 13z m2125 -19 c-7 -8 -35 7 -35 18 0 6 7 6 20 -2 10 -7 17
-14 15 -16z m295 18 c0 -5 -8 -10 -17 -10 -15 0 -16 2 -3 10 19 12 20 12 20 0z
m250 0 c0 -5 -4 -10 -10 -10 -5 0 -10 5 -10 10 0 6 5 10 10 10 6 0 10 -4 10
-10z m-391 -34 c-3 -3 -11 5 -18 17 -13 21 -12 21 5 5 10 -10 16 -20 13 -22z
m-229 4 c0 -5 -5 -10 -11 -10 -5 0 -7 5 -4 10 3 6 8 10 11 10 2 0 4 -4 4 -10z
m345 -11 c4 -11 4 -23 1 -26 -3 -4 -6 1 -6 10 0 10 -4 17 -10 17 -5 0 -10 5
-10 10 0 18 19 10 25 -11z m103 3 c6 -18 -15 -14 -22 4 -4 10 -1 14 6 12 6 -2
14 -10 16 -16z m142 3 c0 -8 -4 -15 -10 -15 -5 0 -10 7 -10 15 0 8 5 15 10 15
6 0 10 -7 10 -15z m-328 -17 c-7 -7 -12 -8 -12 -2 0 14 12 26 19 19 2 -3 -1
-11 -7 -17z m-467 2 c3 -5 1 -10 -4 -10 -6 0 -11 5 -11 10 0 6 2 10 4 10 3 0
8 -4 11 -10z m415 -7 c0 -7 -12 -11 -29 -10 -16 1 -27 7 -25 12 6 14 54 12 54
-2z m335 6 c11 -17 0 -20 -21 -4 -17 13 -17 14 -2 15 9 0 20 -5 23 -11z m-841
-14 c-7 -17 -20 -20 -28 -6 -4 5 0 12 6 14 23 9 28 7 22 -8z m409 -5 c3 -10
-1 -24 -8 -30 -9 -8 -12 -3 -11 20 1 34 11 40 19 10z m-671 -52 c3 -15 1 -25
-3 -22 -5 3 -9 16 -9 30 0 13 -4 24 -10 24 -5 0 -10 8 -10 17 0 15 2 15 14 -2
7 -11 15 -32 18 -47z m878 52 c0 -5 -7 -10 -15 -10 -8 0 -15 -7 -15 -16 0 -8
-4 -12 -10 -9 -6 4 -5 13 3 25 12 21 37 27 37 10z m-1338 -30 c-5 -35 -20 -41
-17 -7 4 35 5 37 13 37 5 0 7 -13 4 -30z m123 -16 c1 -13 -4 -23 -10 -21 -5 2
-10 18 -10 35 -1 22 3 28 10 21 5 -5 10 -21 10 -35z m225 35 c0 -9 -31 -21
-38 -14 -3 3 1 6 9 6 8 1 1 5 -16 9 -29 8 -29 8 8 7 20 -1 37 -4 37 -8z m1315
1 c3 -5 1 -10 -4 -10 -6 0 -11 5 -11 10 0 6 2 10 4 10 3 0 8 -4 11 -10z m-591
-16 c9 -24 7 -27 -9 -10 -17 17 -19 26 -6 26 5 0 12 -7 15 -16z m291 6 c3 -5
1 -10 -4 -10 -6 0 -11 5 -11 10 0 6 2 10 4 10 3 0 8 -4 11 -10z m-475 -8 c0
-5 -3 -12 -7 -16 -17 -17 -11 -46 16 -67 16 -13 27 -29 24 -36 -6 -16 -24 -17
-20 -1 1 6 -6 14 -17 16 -11 2 -16 0 -12 -7 4 -6 2 -11 -3 -11 -6 0 -11 11
-11 25 0 29 -7 31 -32 8 -10 -9 -18 -12 -18 -7 0 12 20 42 20 30 0 -20 30 18
30 39 0 12 3 25 7 28 9 10 23 9 23 -1z m91 -15 c-10 -9 -11 -8 -5 6 3 10 9 15
12 12 3 -3 0 -11 -7 -18z m204 13 c3 -5 -1 -10 -9 -10 -8 0 -18 5 -21 10 -3 6
1 10 9 10 8 0 18 -4 21 -10z m425 0 c0 -5 -4 -10 -9 -10 -6 0 -13 5 -16 10 -3
6 1 10 9 10 9 0 16 -4 16 -10z m-660 -25 c25 -27 23 -40 -4 -29 -9 3 -13 10
-10 16 3 5 -3 12 -15 15 -11 3 -18 9 -15 14 9 14 19 11 44 -16z m320 15 c0 -5
-2 -10 -4 -10 -3 0 -8 5 -11 10 -3 6 -1 10 4 10 6 0 11 -4 11 -10z m75 1 c3
-5 1 -12 -5 -16 -5 -3 -10 1 -10 9 0 18 6 21 15 7z m58 -17 c-11 -17 -19 -22
-21 -14 -3 7 3 19 14 27 26 19 27 17 7 -13z m-1095 5 c-2 -6 -8 -10 -13 -10
-5 0 -11 4 -13 10 -2 6 4 11 13 11 9 0 15 -5 13 -11z m411 8 c-2 -1 -12 -9
-22 -16 -15 -12 -17 -12 -11 3 3 9 13 16 22 16 8 0 13 -1 11 -3z m816 -7 c3
-5 1 -10 -4 -10 -6 0 -11 5 -11 10 0 6 2 10 4 10 3 0 8 -4 11 -10z m-1450 -10
c4 -6 -7 -10 -27 -9 -27 0 -30 2 -13 9 27 12 33 12 40 0z m110 1 c7 -12 -12
-24 -25 -16 -11 7 -4 25 10 25 5 0 11 -4 15 -9z m165 -1 c0 -5 -4 -10 -10 -10
-5 0 -10 5 -10 10 0 6 5 10 10 10 6 0 10 -4 10 -10z m225 0 c3 -5 1 -10 -4
-10 -6 0 -11 5 -11 10 0 6 2 10 4 10 3 0 8 -4 11 -10z m591 -22 c-1 -17 -7
-33 -14 -36 -6 -2 -12 -12 -12 -22 0 -15 -6 -18 -27 -15 -16 2 -34 4 -41 4
-22 1 -2 21 20 21 22 0 58 26 58 42 0 4 -7 8 -15 8 -23 0 -18 18 8 23 12 2 23
5 23 6 1 0 1 -13 0 -31z m258 -35 c-10 -7 -23 -13 -28 -13 -6 0 -3 5 7 11 10
6 17 23 18 42 l1 32 10 -29 c9 -25 8 -31 -8 -43z m-1474 47 c0 -5 -2 -10 -4
-10 -3 0 -8 5 -11 10 -3 6 -1 10 4 10 6 0 11 -4 11 -10z m836 -41 c1 -35 7
-54 20 -63 15 -12 12 -13 -25 -13 -26 0 -40 4 -38 11 2 6 12 10 21 10 18 -2
19 6 7 58 -6 26 -5 39 3 42 6 2 11 5 11 5 0 1 1 -22 1 -50z m304 41 c0 -5 -4
-10 -10 -10 -5 0 -10 5 -10 10 0 6 5 10 10 10 6 0 10 -4 10 -10z m190 0 c0 -5
7 -10 15 -10 8 0 15 -4 15 -9 0 -9 -29 -36 -33 -30 -20 36 -25 48 -20 53 10 9
23 7 23 -4z m-1170 -26 c0 -8 -4 -12 -10 -9 -5 3 -10 10 -10 16 0 5 5 9 10 9
6 0 10 -7 10 -16z m320 8 c0 -13 -12 -22 -22 -16 -10 6 -1 24 13 24 5 0 9 -4
9 -8z m291 -15 c-10 -9 -11 -8 -5 6 3 10 9 15 12 12 3 -3 0 -11 -7 -18z m330
8 c4 3 18 0 31 -5 l23 -11 -24 5 c-14 3 -31 0 -39 -6 -10 -9 -19 -9 -34 1 -17
10 -23 10 -39 -5 -10 -9 -16 -21 -12 -27 3 -5 0 -8 -8 -5 -19 6 -24 38 -6 38
8 0 20 6 26 14 9 11 20 12 43 5 17 -4 34 -6 39 -4z m159 5 c0 -5 -4 -10 -9
-10 -6 0 -13 5 -16 10 -3 6 1 10 9 10 9 0 16 -4 16 -10z m375 0 c3 -6 -3 -22
-14 -36 -15 -19 -21 -22 -21 -11 0 9 5 19 11 22 6 4 8 13 5 21 -6 16 10 19 19
4z m-3075 -10 c0 -5 -5 -10 -11 -10 -5 0 -7 5 -4 10 3 6 8 10 11 10 2 0 4 -4
4 -10z m2077 -54 c-11 -21 -12 -21 -15 4 -2 14 -10 29 -18 33 -8 5 -12 13 -8
18 4 6 16 2 30 -12 20 -18 21 -25 11 -43z m657 43 c-3 -5 -10 -7 -15 -3 -5 3
-7 10 -3 15 3 5 10 7 15 3 5 -3 7 -10 3 -15z m262 3 c-9 -8 -56 -9 -56 -1 0 9
41 17 53 11 5 -2 6 -7 3 -10z m-3026 4 c0 -2 -7 -6 -15 -10 -8 -3 -15 -1 -15
4 0 6 7 10 15 10 8 0 15 -2 15 -4z m1250 0 c0 -3 -4 -8 -10 -11 -5 -3 -10 -1
-10 4 0 6 5 11 10 11 6 0 10 -2 10 -4z m1960 -26 c18 0 36 -17 28 -26 -11 -11
-58 23 -57 41 1 17 2 17 6 3 2 -10 13 -18 23 -18z m-500 11 c0 -5 9 -12 19
-16 20 -6 19 -35 -1 -35 -5 0 -7 4 -3 9 3 6 -4 15 -15 21 -21 11 -27 30 -10
30 6 0 10 -4 10 -9z m-203 -16 c0 -8 -4 -12 -9 -9 -5 3 -6 10 -3 15 9 13 12
11 12 -6z m317 -9 c-5 -12 -10 -14 -19 -6 -7 6 -21 7 -30 3 -13 -4 -16 -3 -11
6 5 7 17 11 27 8 10 -3 22 -1 25 5 9 15 15 3 8 -16z m-2399 -4 c-3 -3 -11 0
-18 7 -9 10 -8 11 6 5 10 -3 15 -9 12 -12z m2139 -23 c-7 -11 -31 11 -31 28 0
9 5 9 18 -3 10 -9 16 -21 13 -25z m344 5 c-4 -3 -12 5 -18 18 -12 22 -12 22 6
6 10 -10 15 -20 12 -24z m149 29 c-4 -3 -2 -12 4 -19 7 -8 7 -14 -1 -19 -5 -3
-10 1 -10 9 0 9 -4 16 -10 16 -5 0 -10 5 -10 10 0 6 8 10 17 10 9 0 13 -3 10
-7z m-196 -26 c-6 -6 -11 -20 -11 -31 0 -17 -2 -18 -10 -6 -9 13 -11 13 -20 0
-5 -8 -10 -10 -10 -4 0 16 44 62 53 57 5 -3 4 -10 -2 -16z m159 2 c0 -6 -4 -7
-10 -4 -5 3 -10 11 -10 16 0 6 5 7 10 4 6 -3 10 -11 10 -16z m-3003 -11 c-3
-8 -6 -5 -6 6 -1 11 2 17 5 13 3 -3 4 -12 1 -19z m2403 -49 c0 8 2 12 5 10 2
-3 2 -15 -2 -27 -5 -23 -37 -28 -39 -7 0 6 -6 23 -12 38 -19 46 -1 53 24 11
13 -22 24 -33 24 -25z m290 45 c0 -8 -4 -12 -10 -9 -6 3 -7 -1 -4 -9 3 -9 2
-16 -4 -16 -11 0 -23 36 -14 44 11 12 32 5 32 -10z m-100 -4 c0 -5 -7 -10 -16
-10 -8 0 -12 5 -9 10 3 6 10 10 16 10 5 0 9 -4 9 -10z m314 -15 c-9 -14 -13
-32 -9 -45 9 -30 -8 -24 -28 9 -16 27 -24 61 -11 49 4 -5 20 -2 62 11 1 1 -5
-10 -14 -24z m266 5 c0 -5 -2 -10 -4 -10 -3 0 -8 5 -11 10 -3 6 -1 10 4 10 6
0 11 -4 11 -10z m-615 -10 c3 -5 1 -10 -4 -10 -6 0 -11 5 -11 10 0 6 2 10 4
10 3 0 8 -4 11 -10z m695 -20 c0 -5 -4 -10 -10 -10 -5 0 -10 5 -10 10 0 6 5
10 10 10 6 0 10 -4 10 -10z m-55 -38 c-3 -3 -11 0 -18 7 -9 10 -8 11 6 5 10
-3 15 -9 12 -12z m-180 -2 c3 -5 -1 -10 -10 -10 -9 0 -13 5 -10 10 3 6 8 10
10 10 2 0 7 -4 10 -10z m245 -6 c0 -2 -7 -4 -15 -4 -8 0 -15 4 -15 10 0 5 7 7
15 4 8 -4 15 -8 15 -10z m-80 -18 c0 -8 9 -18 20 -21 11 -3 20 -11 20 -16 0
-6 -9 -7 -21 -4 -15 5 -19 4 -15 -4 9 -14 -18 -26 -35 -16 -8 6 -7 10 5 17 20
11 21 28 1 28 -18 0 -20 16 -2 23 21 9 27 7 27 -7z m165 -26 c3 -5 1 -10 -4
-10 -6 0 -11 5 -11 10 0 6 2 10 4 10 3 0 8 -4 11 -10z m-84 -26 c-16 -12 -20
-19 -12 -27 8 -8 14 -8 23 1 16 16 28 15 28 -3 0 -8 -8 -15 -18 -15 -10 0 -23
-5 -28 -10 -8 -8 -20 -7 -40 1 l-29 11 23 9 c13 5 26 18 29 29 3 12 14 20 26
20 21 0 21 0 -2 -16z m79 -24 c0 -5 -2 -10 -4 -10 -3 0 -8 5 -11 10 -3 6 -1
10 4 10 6 0 11 -4 11 -10z m70 -50 c0 -5 -4 -10 -10 -10 -5 0 -10 5 -10 10 0
6 5 10 10 10 6 0 10 -4 10 -10z m-30 -84 c0 -3 -4 -8 -10 -11 -5 -3 -10 -1
-10 4 0 6 5 11 10 11 6 0 10 -2 10 -4z m-25 -25 c3 -6 -3 -15 -14 -20 -16 -9
-18 -8 -14 9 6 21 18 26 28 11z m36 -24 c-13 -13 -26 -3 -16 12 3 6 11 8 17 5
6 -4 6 -10 -1 -17z m-61 -33 c0 -8 -5 -12 -10 -9 -6 4 -8 11 -5 16 9 14 15 11
15 -7z m60 -29 c0 -8 5 -15 10 -15 6 0 10 -7 10 -16 0 -13 -5 -11 -24 7 -23
22 -26 39 -5 39 5 0 9 -7 9 -15z m1 -87 c-10 -11 -12 -9 -9 7 2 13 -3 20 -12
20 -10 0 -14 -8 -12 -21 2 -18 -2 -22 -23 -20 -32 1 -31 9 1 41 l27 27 20 -21
c17 -17 19 -23 8 -33z m-71 -37 c0 -6 -4 -13 -10 -16 -5 -3 -10 1 -10 9 0 9 5
16 10 16 6 0 10 -4 10 -9z m54 -22 c-8 -14 -24 -10 -24 6 0 9 6 12 15 9 8 -4
12 -10 9 -15z m-40 -17 c2 -4 -4 -13 -15 -20 -15 -10 -19 -10 -19 1 0 24 23
36 34 19z m-164 -52 c0 -5 -4 -10 -10 -10 -5 0 -10 5 -10 10 0 6 5 10 10 10 6
0 10 -4 10 -10z m180 0 c0 -5 -7 -10 -15 -10 -8 0 -15 5 -15 10 0 6 7 10 15
10 8 0 15 -4 15 -10z m37 4 c-3 -3 -12 -4 -19 -1 -8 3 -5 6 6 6 11 1 17 -2 13
-5z m1903 -14 c0 -5 -5 -10 -11 -10 -5 0 -7 5 -4 10 3 6 8 10 11 10 2 0 4 -4
4 -10z m-1983 -32 c-3 -8 -6 -5 -6 6 -1 11 2 17 5 13 3 -3 4 -12 1 -19z m3
-48 c0 -5 -7 -10 -15 -10 -8 0 -15 5 -15 10 0 6 7 10 15 10 8 0 15 -4 15 -10z
m-10 -46 c0 -8 -5 -12 -10 -9 -6 4 -8 11 -5 16 9 14 15 11 15 -7z m56 -41 c-7
-7 -26 7 -26 19 0 6 6 6 15 -2 9 -7 13 -15 11 -17z m-56 -17 c0 -3 -4 -8 -10
-11 -5 -3 -10 -1 -10 4 0 6 5 11 10 11 6 0 10 -2 10 -4z m-70 -35 c0 -12 -20
-25 -27 -18 -7 7 6 27 18 27 5 0 9 -4 9 -9z m51 -24 c-10 -9 -11 -8 -5 6 3 10
9 15 12 12 3 -3 0 -11 -7 -18z m-26 3 c-3 -5 -11 -10 -16 -10 -6 0 -7 5 -4 10
3 6 11 10 16 10 6 0 7 -4 4 -10z m48 -31 c-4 -15 -8 -17 -14 -8 -6 11 4 28 18
29 0 0 -1 -9 -4 -21z m-63 -20 c0 -11 -4 -18 -10 -14 -5 3 -7 12 -3 20 7 21
13 19 13 -6z m17 -59 c-1 -11 -4 -20 -8 -20 -10 0 -19 27 -12 34 12 12 22 5
20 -14z m9 -45 c-9 -9 -16 -13 -16 -8 0 12 22 34 28 28 2 -2 -3 -11 -12 -20z
m-87 -196 c13 -39 14 -42 1 -34 -5 3 -10 15 -10 26 0 10 -7 19 -15 19 -8 0
-15 5 -15 10 0 23 29 7 39 -21z m46 1 c3 -5 1 -10 -4 -10 -6 0 -11 5 -11 10 0
6 2 10 4 10 3 0 8 -4 11 -10z m-75 -54 c0 -2 -7 -7 -16 -10 -8 -3 -12 -2 -9 4
6 10 25 14 25 6z m-15 -64 c-2 -2 -15 4 -30 14 -18 12 -23 19 -14 25 11 6 53
-31 44 -39z m-43 -74 c-7 -7 -12 -8 -12 -2 0 14 12 26 19 19 2 -3 -1 -11 -7
-17z m-29 -33 c-3 -9 -8 -14 -10 -11 -3 3 -2 9 2 15 9 16 15 13 8 -4z m-93
-90 c-7 -8 -18 -15 -24 -15 -6 0 -2 7 8 15 25 19 32 19 16 0z m-63 -71 c-3 -3
-12 -4 -19 -1 -8 3 -5 6 6 6 11 1 17 -2 13 -5z m-86 -28 c-15 -18 -51 -17 -51
1 0 16 12 17 28 1 9 -9 13 -7 18 6 4 9 9 15 12 12 3 -3 -1 -12 -7 -20z m-61
-40 c0 -3 -4 -8 -10 -11 -5 -3 -10 -1 -10 4 0 6 5 11 10 11 6 0 10 -2 10 -4z
m-277 -327 c-9 -9 -12 -7 -10 9 1 14 5 18 11 12 7 -7 6 -14 -1 -21z m-103
-257 c0 -4 -9 -13 -20 -20 -22 -13 -27 -3 -8 16 14 14 28 16 28 4z m1034 -33
c-3 -5 -10 -7 -15 -3 -5 3 -7 10 -3 15 3 5 10 7 15 3 5 -3 7 -10 3 -15z
m-1098 -136 c-10 -10 -19 5 -10 18 6 11 8 11 12 0 2 -7 1 -15 -2 -18z m8 -99
c4 -10 1 -14 -6 -12 -15 5 -23 28 -10 28 5 0 13 -7 16 -16z m1026 -106 c0 -16
-3 -19 -11 -11 -6 6 -8 16 -5 22 11 17 16 13 16 -11z m2200 -154 c0 -3 -7 -12
-15 -21 -20 -19 -32 -9 -15 12 12 15 30 20 30 9z m-202 -119 c-3 -3 -9 2 -12
12 -6 14 -5 15 5 6 7 -7 10 -15 7 -18z m-262 -30 c-22 -16 -57 -21 -40 -6 7 8
29 15 54 20 3 0 -4 -6 -14 -14z m-1336 -14 c0 -11 -29 -35 -35 -29 -10 9 7 38
21 38 8 0 14 -4 14 -9z m109 -158 c-7 -10 -15 -20 -16 -22 -2 -2 -3 5 -3 17 0
14 6 22 16 22 14 0 15 -3 3 -17z m691 -17 c0 -3 -4 -8 -10 -11 -5 -3 -10 -1
-10 4 0 6 5 11 10 11 6 0 10 -2 10 -4z m-630 -16 c0 -5 -4 -10 -10 -10 -5 0
-10 5 -10 10 0 6 5 10 10 10 6 0 10 -4 10 -10z m200 0 c0 -5 -5 -10 -11 -10
-5 0 -7 5 -4 10 3 6 8 10 11 10 2 0 4 -4 4 -10z m-1286 -131 c-26 -29 -51 -41
-59 -29 -3 5 9 19 27 30 43 26 56 26 32 -1z m-334 -309 c0 -5 -4 -10 -9 -10
-6 0 -13 5 -16 10 -3 6 1 10 9 10 9 0 16 -4 16 -10z m270 -90 c0 -5 -4 -10 -9
-10 -6 0 -13 5 -16 10 -3 6 1 10 9 10 9 0 16 -4 16 -10z m380 -180 c0 -5 -4
-10 -10 -10 -5 0 -10 5 -10 10 0 6 5 10 10 10 6 0 10 -4 10 -10z m210 -24 c0
-3 -4 -8 -10 -11 -5 -3 -10 -1 -10 4 0 6 5 11 10 11 6 0 10 -2 10 -4z m715
-25 c-3 -6 -11 -11 -17 -11 -6 0 -6 6 2 15 14 17 26 13 15 -4z m-475 5 c0 -3
-4 -8 -10 -11 -5 -3 -10 -1 -10 4 0 6 5 11 10 11 6 0 10 -2 10 -4z m300 -36
c0 -5 -2 -10 -4 -10 -3 0 -8 5 -11 10 -3 6 -1 10 4 10 6 0 11 -4 11 -10z
m2120 -510 c0 -5 -2 -10 -4 -10 -3 0 -8 5 -11 10 -3 6 -1 10 4 10 6 0 11 -4
11 -10z m0 -80 c0 -5 -5 -10 -11 -10 -5 0 -7 5 -4 10 3 6 8 10 11 10 2 0 4 -4
4 -10z m28 -41 c-3 -8 -7 -3 -11 10 -4 17 -3 21 5 13 5 -5 8 -16 6 -23z m-58
2 c0 -12 -20 -25 -27 -18 -7 7 6 27 18 27 5 0 9 -4 9 -9z m-150 -57 c0 -8 -4
-12 -10 -9 -5 3 -10 13 -10 21 0 8 5 12 10 9 6 -3 10 -13 10 -21z m214 11 c3
-9 0 -15 -9 -15 -8 0 -15 7 -15 15 0 8 4 15 9 15 5 0 11 -7 15 -15z m-336 -19
c3 -12 -1 -17 -10 -14 -7 3 -15 13 -16 22 -3 12 1 17 10 14 7 -3 15 -13 16
-22z m366 2 c-9 -31 -24 -48 -40 -48 -19 0 -18 -16 1 -24 8 -3 12 -12 9 -21
-4 -10 0 -15 15 -15 24 0 25 -7 11 -44 -6 -17 -6 -26 0 -26 6 0 10 -5 10 -11
0 -8 -5 -8 -15 1 -8 7 -15 24 -15 37 0 18 -4 24 -15 19 -12 -4 -15 3 -15 30 0
28 -3 35 -15 30 -13 -4 -13 -2 -5 14 6 10 9 25 8 32 -2 8 5 12 19 10 14 -2 23
4 28 18 3 11 11 20 16 20 6 0 7 -10 3 -22z m-334 -8 c0 -11 5 -20 11 -20 5 0
7 -5 3 -12 -4 -6 1 -17 11 -25 11 -7 13 -13 6 -13 -9 0 -8 -4 3 -15 8 -8 19
-15 24 -15 6 0 12 -7 16 -15 3 -9 0 -15 -8 -15 -21 0 -66 47 -66 68 0 11 -6
22 -14 25 -9 3 -12 15 -9 31 6 31 23 35 23 6z m171 1 c13 -12 17 -21 10 -25
-6 -4 -9 -26 -6 -51 2 -25 0 -45 -6 -45 -5 0 -9 14 -9 30 0 19 -5 30 -14 30
-13 0 -13 4 -1 27 10 20 11 31 3 40 -16 20 0 16 23 -6z m-56 -62 c-3 -4 0 -9
7 -11 6 -2 8 -10 4 -16 -11 -18 -26 -14 -26 6 0 11 -9 27 -20 37 -11 10 -20
25 -20 33 0 11 9 7 30 -13 16 -15 27 -31 25 -36z m125 27 c0 -7 -7 -13 -15
-13 -15 0 -20 18 -9 30 9 9 24 -2 24 -17z m-270 -31 c-7 -9 -15 -13 -17 -11
-7 7 7 26 19 26 6 0 6 -6 -2 -15z m275 -36 c11 -17 -1 -21 -15 -4 -8 9 -8 15
-2 15 6 0 14 -5 17 -11z m-345 -39 c0 -5 -5 -10 -11 -10 -5 0 -7 5 -4 10 3 6
8 10 11 10 2 0 4 -4 4 -10z m215 -11 c0 -7 -8 -15 -17 -17 -12 -2 -15 2 -11
18 6 23 28 22 28 -1z m-420 1 c3 -5 1 -10 -4 -10 -6 0 -11 5 -11 10 0 6 2 10
4 10 3 0 8 -4 11 -10z m535 0 c0 -5 -4 -10 -10 -10 -5 0 -10 5 -10 10 0 6 5
10 10 10 6 0 10 -4 10 -10z m-45 -14 c18 -13 17 -14 -18 -13 -37 1 -49 11 -24
20 19 8 22 8 42 -7z m85 -11 c-7 -9 -15 -13 -18 -10 -3 2 1 11 8 20 7 9 15 13
18 10 3 -2 -1 -11 -8 -20z m-455 -41 c19 5 23 3 19 -9 -9 -22 -40 -18 -58 6
-12 17 -21 20 -45 16 -24 -5 -31 -3 -31 9 0 8 4 13 9 10 5 -4 11 0 14 6 4 10
7 11 18 1 19 -18 29 -16 24 5 -3 9 2 2 10 -16 13 -29 20 -33 40 -28z m132 20
c2 -5 -10 -15 -27 -21 -16 -6 -30 -10 -30 -8 0 2 -3 12 -6 22 -4 13 -3 15 4 5
8 -12 12 -11 23 2 15 16 31 16 36 0z m116 -31 c-34 -18 -35 -17 -10 11 14 16
24 21 29 13 3 -6 -5 -16 -19 -24z m243 8 c-12 -19 -24 -12 -19 10 4 13 9 17
15 11 6 -6 7 -15 4 -21z m-116 -2 c0 -5 -7 -9 -15 -9 -8 0 -15 7 -15 15 0 9 6
12 15 9 8 -4 15 -10 15 -15z m-590 1 c0 -5 -2 -10 -4 -10 -3 0 -8 5 -11 10 -3
6 -1 10 4 10 6 0 11 -4 11 -10z m388 -37 c-7 -9 -6 -18 2 -28 10 -12 10 -15
-2 -15 -8 0 -19 5 -26 12 -9 9 -7 14 6 24 9 7 14 16 10 20 -4 4 -14 1 -23 -6
-12 -10 -15 -10 -15 2 0 8 5 19 12 26 16 16 50 -17 36 -35z m-268 15 c0 -9 3
-8 10 2 5 8 12 11 16 7 12 -12 -11 -28 -29 -21 -18 7 -23 24 -7 24 6 0 10 -6
10 -12z m-31 -22 c7 -8 8 -17 3 -19 -4 -3 -13 3 -20 14 -14 22 0 26 17 5z
m106 4 c3 -5 1 -10 -4 -10 -6 0 -11 5 -11 10 0 6 2 10 4 10 3 0 8 -4 11 -10z
m545 -54 c0 -16 -26 -4 -35 17 -6 12 -16 21 -23 20 -12 -3 -16 9 -6 20 6 6 64
-45 64 -57z m0 44 c0 -5 -2 -10 -4 -10 -3 0 -8 5 -11 10 -3 6 -1 10 4 10 6 0
11 -4 11 -10z m-870 -20 c0 -5 -2 -10 -4 -10 -3 0 -8 5 -11 10 -3 6 -1 10 4
10 6 0 11 -4 11 -10z m255 -20 c3 -5 1 -10 -4 -10 -6 0 -11 5 -11 10 0 6 2 10
4 10 3 0 8 -4 11 -10z m99 1 c3 -5 -1 -11 -9 -15 -8 -3 -17 -1 -20 4 -3 5 -13
6 -22 3 -11 -4 -14 -3 -9 5 8 14 52 16 60 3z m-124 -32 c0 -5 3 -8 8 -6 7 2
12 -6 12 -23 0 -14 -80 -4 -94 11 -8 9 -6 10 7 5 13 -4 20 -1 24 13 3 13 11
17 24 14 10 -3 19 -9 19 -14z m-230 7 c0 -3 -4 -8 -10 -11 -5 -3 -10 -1 -10 4
0 6 5 11 10 11 6 0 10 -2 10 -4z m98 -14 c2 -7 -2 -10 -12 -6 -9 3 -16 11 -16
16 0 13 23 5 28 -10z m209 -13 c-16 -26 -30 -24 -22 2 5 16 4 19 -5 14 -8 -5
-11 -4 -7 3 4 5 16 8 26 5 17 -4 18 -8 8 -24z m266 -8 c2 -11 -3 -25 -13 -34
-16 -14 -19 -14 -23 2 -5 20 9 51 22 51 5 0 11 -8 14 -19z m-433 -25 c0 -3 -4
-8 -10 -11 -5 -3 -10 -1 -10 4 0 6 5 11 10 11 6 0 10 -2 10 -4z m34 -12 c8
-22 8 -24 -8 -24 -9 0 -14 9 -13 20 2 24 13 26 21 4z m-104 -3 c0 -5 9 -7 20
-4 11 3 20 0 20 -6 0 -6 -8 -12 -17 -12 -10 -1 -28 -3 -40 -4 -19 -2 -20 0
-10 16 12 20 27 25 27 10z m-2635 -51 c-3 -5 -13 -10 -21 -10 -8 0 -12 5 -9
10 3 6 13 10 21 10 8 0 12 -4 9 -10z m2610 -10 c3 -5 1 -10 -4 -10 -6 0 -11 5
-11 10 0 6 2 10 4 10 3 0 8 -4 11 -10z m91 -48 c-9 -8 -26 10 -26 26 1 15 2
15 15 -2 8 -11 13 -21 11 -24z m592 8 c-9 -14 -9 -25 0 -44 10 -22 9 -26 -3
-26 -26 0 -37 47 -19 75 19 29 40 24 22 -5z m-549 -6 c3 -16 1 -17 -13 -5 -19
16 -21 34 -3 29 6 -3 14 -13 16 -24z m41 5 c0 -6 -4 -7 -10 -4 -5 3 -10 11
-10 16 0 6 5 7 10 4 6 -3 10 -11 10 -16z m50 -28 c0 -12 -20 -25 -27 -18 -7 7
6 27 18 27 5 0 9 -4 9 -9z m110 -10 c0 -5 -6 -14 -14 -20 -11 -9 -16 -9 -21 0
-4 6 -1 15 6 20 18 11 29 11 29 0z m-2900 -41 c0 -5 -4 -10 -10 -10 -5 0 -10
5 -10 10 0 6 5 10 10 10 6 0 10 -4 10 -10z m2740 -26 c0 -17 -22 -14 -28 4 -2
7 3 12 12 12 9 0 16 -7 16 -16z m-565 -44 c3 -5 -1 -10 -10 -10 -9 0 -13 5
-10 10 3 6 8 10 10 10 2 0 7 -4 10 -10z m-125 -50 c0 -5 -4 -10 -10 -10 -5 0
-10 5 -10 10 0 6 5 10 10 10 6 0 10 -4 10 -10z m-2145 -20 c-3 -5 -10 -10 -16
-10 -5 0 -9 5 -9 10 0 6 7 10 16 10 8 0 12 -4 9 -10z m2410 0 c-3 -5 -10 -10
-16 -10 -5 0 -9 5 -9 10 0 6 7 10 16 10 8 0 12 -4 9 -10z m-2415 -24 c0 -3 -4
-8 -10 -11 -5 -3 -10 -1 -10 4 0 6 5 11 10 11 6 0 10 -2 10 -4z m2250 -30 c0
-3 -4 -8 -10 -11 -5 -3 -10 -1 -10 4 0 6 5 11 10 11 6 0 10 -2 10 -4z m63 -32
c-4 -10 -9 -12 -15 -6 -12 12 -1 35 12 27 5 -3 6 -13 3 -21z m-2283 -21 c0
-12 5 -23 10 -23 6 0 10 -8 10 -17 0 -14 -4 -12 -22 7 -27 29 -33 57 -13 57 9
0 15 -10 15 -24z m-26 -108 c-7 -16 -24 -21 -24 -6 0 8 7 13 27 20 1 1 0 -6
-3 -14z m-4 -35 c0 -5 -5 -10 -11 -10 -5 0 -7 5 -4 10 3 6 8 10 11 10 2 0 4
-4 4 -10z"/>
<path d="M6941 8925 c-80 -27 -141 -60 -155 -84 -6 -9 -31 -39 -58 -67 l-48
-51 -56 5 c-35 3 -64 0 -80 -9 -28 -14 -27 -33 2 -35 10 -1 36 -8 57 -17 30
-13 37 -21 38 -44 2 -77 30 -129 94 -173 80 -55 196 -77 296 -55 156 34 268
192 238 334 -12 54 4 80 21 35 21 -53 15 -138 -14 -198 -15 -31 -31 -56 -36
-56 -14 0 -38 -57 -30 -70 12 -19 51 6 43 28 -5 14 -3 13 13 -3 10 -11 16 -16
12 -11 -15 19 -8 25 22 20 26 -6 30 -4 30 16 0 16 4 20 15 16 8 -3 15 -1 15 4
0 6 -4 10 -10 10 -5 0 -10 11 -10 25 0 17 7 29 23 35 13 5 16 9 7 9 -12 1 -16
14 -17 59 -2 153 -76 248 -226 288 -71 19 -100 17 -186 -11z m275 -56 c19 -22
19 -22 -3 -10 -13 6 -23 16 -23 21 0 15 5 12 26 -11z m-156 -414 c0 -13 -65
-35 -104 -35 -100 0 -103 28 -3 33 39 1 80 4 90 5 9 1 17 0 17 -3z"/>
<path d="M6490 8709 c0 -5 5 -7 10 -4 6 3 10 8 10 11 0 2 -4 4 -10 4 -5 0 -10
-5 -10 -11z"/>
<path d="M7830 8690 c0 -5 -7 -7 -17 -3 -14 5 -15 1 -10 -27 4 -18 7 -44 7
-57 0 -21 3 -23 14 -14 7 6 20 9 28 6 17 -7 32 41 16 51 -5 3 -7 13 -3 22 3 8
0 19 -7 24 -17 11 -28 10 -28 -2z"/>
<path d="M7880 8666 c0 -9 5 -16 10 -16 6 0 10 4 10 9 0 6 -4 13 -10 16 -5 3
-10 -1 -10 -9z"/>
<path d="M7360 8550 c0 -5 5 -10 10 -10 6 0 10 5 10 10 0 6 -4 10 -10 10 -5 0
-10 -4 -10 -10z"/>
<path d="M7920 8325 c-7 -9 -8 -15 -2 -15 5 0 12 7 16 15 3 8 4 15 2 15 -2 0
-9 -7 -16 -15z"/>
<path d="M6713 8083 c-23 -9 -14 -20 12 -15 14 2 25 8 25 13 0 10 -17 11 -37
2z"/>
<path d="M6235 8060 c3 -5 8 -10 11 -10 2 0 4 5 4 10 0 6 -5 10 -11 10 -5 0
-7 -4 -4 -10z"/>
<path d="M6155 8050 c-3 -5 -1 -10 4 -10 6 0 11 5 11 10 0 6 -2 10 -4 10 -3 0
-8 -4 -11 -10z"/>
<path d="M6335 8050 c-3 -5 -1 -10 4 -10 6 0 11 5 11 10 0 6 -2 10 -4 10 -3 0
-8 -4 -11 -10z"/>
<path d="M6410 8042 c0 -12 19 -26 26 -19 2 2 -2 10 -11 17 -9 8 -15 8 -15 2z"/>
<path d="M5920 8030 c0 -5 5 -10 11 -10 5 0 7 5 4 10 -3 6 -8 10 -11 10 -2 0
-4 -4 -4 -10z"/>
<path d="M6110 8030 c0 -5 5 -10 11 -10 5 0 7 5 4 10 -3 6 -8 10 -11 10 -2 0
-4 -4 -4 -10z"/>
<path d="M6284 8025 c3 -21 24 -40 33 -30 5 4 2 10 -4 12 -7 3 -13 11 -13 19
0 8 -4 14 -9 14 -5 0 -8 -7 -7 -15z"/>
<path d="M5950 8020 c0 -8 24 -20 41 -20 6 0 8 4 5 9 -8 12 -46 21 -46 11z"/>
<path d="M6190 8020 c0 -5 5 -10 10 -10 6 0 10 5 10 10 0 6 -4 10 -10 10 -5 0
-10 -4 -10 -10z"/>
<path d="M5860 7989 c0 -11 47 -49 53 -43 4 4 -1 13 -11 20 -14 11 -15 15 -3
23 10 7 7 9 -12 8 -15 -1 -27 -5 -27 -8z"/>
<path d="M8080 7910 c0 -5 5 -10 11 -10 5 0 7 5 4 10 -3 6 -8 10 -11 10 -2 0
-4 -4 -4 -10z"/>
<path d="M5632 7860 c13 -20 28 -27 28 -12 0 10 -22 32 -32 32 -5 0 -3 -9 4
-20z"/>
<path d="M8215 7730 c3 -5 8 -10 11 -10 2 0 4 5 4 10 0 6 -5 10 -11 10 -5 0
-7 -4 -4 -10z"/>
<path d="M5360 7630 c0 -5 5 -10 11 -10 5 0 7 5 4 10 -3 6 -8 10 -11 10 -2 0
-4 -4 -4 -10z"/>
<path d="M5303 7583 c-18 -7 -16 -23 2 -23 8 0 15 7 15 15 0 8 -1 15 -2 14 -2
0 -9 -3 -15 -6z"/>
<path d="M5251 7481 c-12 -7 -11 -12 1 -30 8 -11 18 -18 21 -14 4 3 2 13 -5
20 -9 11 -9 17 3 24 8 5 10 9 4 9 -5 0 -16 -4 -24 -9z"/>
<path d="M4980 7190 c0 -5 5 -10 11 -10 5 0 7 5 4 10 -3 6 -8 10 -11 10 -2 0
-4 -4 -4 -10z"/>
<path d="M8600 7194 c0 -17 17 -36 24 -26 3 5 -1 15 -9 22 -8 7 -15 9 -15 4z"/>
<path d="M4780 6910 c0 -5 5 -10 11 -10 5 0 7 5 4 10 -3 6 -8 10 -11 10 -2 0
-4 -4 -4 -10z"/>
<path d="M4660 6775 c-7 -9 -8 -15 -2 -15 5 0 12 7 16 15 3 8 4 15 2 15 -2 0
-9 -7 -16 -15z"/>
<path d="M4453 6452 c13 -14 14 -21 5 -30 -6 -6 -8 -15 -5 -19 4 -4 15 0 23 9
14 14 14 18 -2 37 -10 11 -23 21 -28 21 -5 0 -2 -8 7 -18z"/>
<path d="M6661 6426 c-8 -10 -9 -16 -1 -21 5 -3 10 1 10 10 0 9 4 14 8 11 4
-2 14 -1 22 5 12 7 11 9 -6 9 -12 0 -27 -6 -33 -14z"/>
<path d="M6755 6430 c27 -12 35 -12 35 0 0 6 -12 10 -27 9 -25 0 -26 -1 -8 -9z"/>
<path d="M6489 6411 c8 -5 11 -16 7 -27 -5 -15 -2 -14 13 4 12 13 22 18 26 12
3 -5 11 -10 16 -10 6 0 4 7 -5 15 -8 8 -27 15 -43 15 -20 0 -24 -3 -14 -9z"/>
<path d="M6750 6400 c0 -5 5 -10 11 -10 5 0 7 5 4 10 -3 6 -8 10 -11 10 -2 0
-4 -4 -4 -10z"/>
<path d="M6268 6393 c7 -3 16 -2 19 1 4 3 -2 6 -13 5 -11 0 -14 -3 -6 -6z"/>
<path d="M6440 6380 c0 -5 5 -10 10 -10 6 0 10 5 10 10 0 6 -4 10 -10 10 -5 0
-10 -4 -10 -10z"/>
<path d="M6773 6376 c-13 -7 -20 -16 -17 -19 4 -4 1 -13 -6 -22 -20 -24 6 -18
30 7 16 17 29 51 18 47 -2 -1 -13 -7 -25 -13z"/>
<path d="M7260 6371 c0 -5 9 -7 20 -4 11 3 20 7 20 9 0 2 -9 4 -20 4 -11 0
-20 -4 -20 -9z"/>
<path d="M6263 6358 c-4 -7 -6 -21 -5 -30 2 -10 -2 -18 -7 -18 -6 0 -11 5 -11
12 0 6 -8 4 -19 -6 -20 -18 -121 -31 -121 -15 0 5 -5 9 -11 9 -5 0 -8 -3 -5
-8 8 -13 -19 -40 -49 -48 -24 -6 -27 -4 -22 10 4 9 2 16 -3 16 -6 0 -10 -9
-10 -19 0 -11 -8 -22 -17 -25 -33 -10 361 5 469 17 105 13 151 26 92 28 l-29
0 23 16 c25 18 30 35 6 26 -13 -5 -15 -2 -9 15 4 16 2 22 -8 22 -21 0 -30 -30
-15 -48 11 -13 10 -15 -12 -9 -14 4 -33 7 -42 7 -10 0 -18 5 -18 11 0 6 8 8
19 4 15 -4 19 -1 17 18 -1 19 -5 22 -29 19 -26 -4 -49 -22 -29 -22 6 0 9 -11
8 -25 -1 -29 -1 -28 -27 -15 -23 13 -26 32 -2 23 13 -5 15 -2 10 11 -4 10 -7
20 -7 22 0 11 -24 2 -36 -13 -12 -17 -13 -17 -14 -1 0 25 -17 31 -42 14 -12
-9 -17 -16 -10 -16 7 0 11 -4 7 -10 -10 -17 -36 1 -30 21 7 22 0 25 -12 7z
m222 -79 c-4 -5 -13 -9 -22 -9 -13 0 -13 3 -3 15 13 15 35 11 25 -6z m-185 1
c0 -5 -7 -10 -15 -10 -8 0 -15 5 -15 10 0 6 7 10 15 10 8 0 15 -4 15 -10z m90
0 c0 -5 -5 -10 -11 -10 -5 0 -7 5 -4 10 3 6 8 10 11 10 2 0 4 -4 4 -10z m-280
-15 c0 -8 -4 -15 -10 -15 -5 0 -7 7 -4 15 4 8 8 15 10 15 2 0 4 -7 4 -15z"/>
<path d="M6870 6362 c0 -5 7 -13 16 -16 10 -4 14 -1 12 6 -5 15 -28 23 -28 10z"/>
<path d="M6810 6346 c0 -9 5 -16 10 -16 6 0 10 4 10 9 0 6 -4 13 -10 16 -5 3
-10 -1 -10 -9z"/>
<path d="M6153 6342 c-13 -2 -23 -7 -23 -12 0 -5 6 -7 14 -4 8 3 23 1 34 -5
15 -8 23 -6 37 9 17 19 17 19 -11 17 -16 -1 -39 -3 -51 -5z"/>
<path d="M4370 6309 c0 -5 5 -7 10 -4 6 3 10 8 10 11 0 2 -4 4 -10 4 -5 0 -10
-5 -10 -11z"/>
<path d="M6835 6310 c-42 -11 -1 -11 50 -1 34 7 35 9 10 9 -16 0 -43 -4 -60
-8z"/>
<path d="M6765 6300 c-4 -6 3 -10 14 -10 25 0 27 6 6 13 -8 4 -17 2 -20 -3z"/>
<path d="M6660 6290 c-34 -7 -34 -7 13 -9 30 0 46 3 42 9 -3 6 -9 9 -13 9 -4
-1 -23 -5 -42 -9z"/>
<path d="M5965 6270 c-3 -6 1 -7 9 -4 18 7 21 14 7 14 -6 0 -13 -4 -16 -10z"/>
<path d="M6588 6273 c7 -3 16 -2 19 1 4 3 -2 6 -13 5 -11 0 -14 -3 -6 -6z"/>
<path d="M5910 6232 c0 -4 9 -8 19 -8 11 0 17 4 15 8 -3 4 -12 8 -20 8 -8 0
-14 -4 -14 -8z"/>
<path d="M4268 6075 c-2 -22 0 -34 6 -32 14 4 21 67 8 67 -6 0 -12 -16 -14
-35z"/>
<path d="M4186 5916 c3 -9 11 -16 16 -16 13 0 5 23 -10 28 -7 2 -10 -2 -6 -12z"/>
<path d="M4150 5910 c0 -5 5 -10 10 -10 6 0 10 5 10 10 0 6 -4 10 -10 10 -5 0
-10 -4 -10 -10z"/>
<path d="M5898 5734 c-4 -17 -2 -20 12 -17 10 3 28 0 40 -7 12 -6 25 -9 28 -5
9 9 -19 25 -45 25 -12 0 -23 6 -25 12 -3 7 -7 3 -10 -8z"/>
<path d="M5630 5730 l-25 -8 28 -1 c15 -1 27 4 27 9 0 6 -1 10 -2 9 -2 -1 -14
-5 -28 -9z"/>
<path d="M5740 5720 c8 -5 20 -10 25 -10 6 0 3 5 -5 10 -8 5 -19 10 -25 10 -5
0 -3 -5 5 -10z"/>
<path d="M5855 5710 c4 -6 11 -8 16 -5 14 9 11 15 -7 15 -8 0 -12 -5 -9 -10z"/>
<path d="M5650 5700 c0 -5 5 -10 11 -10 5 0 7 5 4 10 -3 6 -8 10 -11 10 -2 0
-4 -4 -4 -10z"/>
<path d="M5340 5686 c0 -9 5 -16 10 -16 6 0 10 4 10 9 0 6 -4 13 -10 16 -5 3
-10 -1 -10 -9z"/>
<path d="M5440 5690 c0 -5 5 -10 10 -10 6 0 10 5 10 10 0 6 -4 10 -10 10 -5 0
-10 -4 -10 -10z"/>
<path d="M5792 5680 c9 -14 14 -16 20 -7 13 20 9 27 -12 27 -18 0 -19 -3 -8
-20z"/>
<path d="M5987 5681 c-4 -17 -3 -21 5 -13 5 5 8 16 6 23 -3 8 -7 3 -11 -10z"/>
<path d="M5470 5680 c0 -5 5 -10 11 -10 5 0 7 5 4 10 -3 6 -8 10 -11 10 -2 0
-4 -4 -4 -10z"/>
<path d="M5560 5680 c0 -5 5 -10 10 -10 6 0 10 5 10 10 0 6 -4 10 -10 10 -5 0
-10 -4 -10 -10z"/>
<path d="M5865 5670 c-3 -5 -2 -10 4 -10 5 0 13 5 16 10 3 6 2 10 -4 10 -5 0
-13 -4 -16 -10z"/>
<path d="M6242 5660 c0 -14 2 -19 5 -12 2 6 2 18 0 25 -3 6 -5 1 -5 -13z"/>
<path d="M4745 5660 c-3 -5 -1 -10 4 -10 6 0 11 5 11 10 0 6 -2 10 -4 10 -3 0
-8 -4 -11 -10z"/>
<path d="M5580 5655 c-7 -9 -10 -18 -7 -21 3 -3 10 4 17 15 13 25 8 27 -10 6z"/>
<path d="M7235 5650 c3 -5 10 -10 16 -10 5 0 9 5 9 10 0 6 -7 10 -16 10 -8 0
-12 -4 -9 -10z"/>
<path d="M5165 5639 c-11 -16 -1 -19 13 -3 7 8 8 14 3 14 -5 0 -13 -5 -16 -11z"/>
<path d="M5245 5640 c3 -5 11 -10 16 -10 6 0 7 5 4 10 -3 6 -11 10 -16 10 -6
0 -7 -4 -4 -10z"/>
<path d="M6015 5630 c3 -5 8 -10 11 -10 2 0 4 5 4 10 0 6 -5 10 -11 10 -5 0
-7 -4 -4 -10z"/>
<path d="M6205 5629 c-4 -6 -5 -12 -2 -15 2 -3 7 2 10 11 7 17 1 20 -8 4z"/>
<path d="M4880 5620 c0 -5 5 -10 11 -10 5 0 7 5 4 10 -3 6 -8 10 -11 10 -2 0
-4 -4 -4 -10z"/>
<path d="M6230 5617 c0 -19 16 -31 24 -18 3 5 -1 14 -9 21 -12 10 -15 10 -15
-3z"/>
<path d="M6085 5610 c-3 -5 -1 -10 4 -10 6 0 11 5 11 10 0 6 -2 10 -4 10 -3 0
-8 -4 -11 -10z"/>
<path d="M6930 5605 c0 -21 31 -75 43 -75 6 0 3 -6 -8 -13 -10 -8 -15 -19 -11
-25 11 -18 36 -14 36 4 0 14 3 14 15 4 12 -10 15 -10 15 2 0 8 -11 21 -25 28
-29 15 -32 25 -10 34 8 3 15 10 15 17 0 6 -7 8 -16 5 -8 -3 -12 -2 -9 4 3 6
-1 10 -10 10 -9 0 -14 4 -11 8 3 5 -1 9 -9 9 -8 0 -15 -6 -15 -12z"/>
<path d="M7190 5605 c0 -9 9 -15 25 -15 14 0 25 -5 25 -11 0 -5 5 -7 10 -4 6
3 10 13 10 21 0 8 -4 12 -10 9 -5 -3 -10 -1 -10 4 0 6 -11 11 -25 11 -16 0
-25 -6 -25 -15z"/>
<path d="M6580 5595 c0 -9 5 -15 11 -13 6 2 11 8 11 13 0 5 -5 11 -11 13 -6 2
-11 -4 -11 -13z"/>
<path d="M6203 5593 c-7 -3 -13 -12 -13 -21 0 -15 2 -15 17 1 18 18 16 27 -4
20z"/>
<path d="M6285 5580 c-3 -11 -4 -24 -1 -29 4 -5 1 -12 -4 -14 -6 -3 -5 -4 2
-3 7 2 13 11 13 22 0 10 4 25 8 32 5 7 4 12 -2 12 -5 0 -12 -9 -16 -20z"/>
<path d="M6625 5580 c3 -5 8 -10 11 -10 2 0 4 5 4 10 0 6 -5 10 -11 10 -5 0
-7 -4 -4 -10z"/>
<path d="M6828 5583 c6 -2 18 -2 25 0 6 3 1 5 -13 5 -14 0 -19 -2 -12 -5z"/>
<path d="M6735 5563 c-14 -14 -18 -14 -26 -2 -5 9 -9 10 -9 2 0 -20 20 -26 37
-11 14 11 16 11 11 -2 -4 -11 1 -16 14 -17 19 -2 19 -1 4 16 -9 10 -13 21 -9
24 3 4 4 7 0 7 -3 0 -13 -7 -22 -17z"/>
<path d="M6506 5551 c-3 -5 0 -11 7 -14 8 -3 14 1 14 9 0 16 -13 19 -21 5z"/>
<path d="M6606 5545 c4 -8 8 -15 10 -15 2 0 4 7 4 15 0 8 -4 15 -10 15 -5 0
-7 -7 -4 -15z"/>
<path d="M7000 5550 c0 -5 5 -10 10 -10 6 0 10 5 10 10 0 6 -4 10 -10 10 -5 0
-10 -4 -10 -10z"/>
<path d="M7040 5540 c0 -6 7 -10 15 -10 8 0 15 2 15 4 0 2 -7 6 -15 10 -8 3
-15 1 -15 -4z"/>
<path d="M6850 5530 c0 -5 5 -10 10 -10 6 0 10 5 10 10 0 6 -4 10 -10 10 -5 0
-10 -4 -10 -10z"/>
<path d="M6250 5520 c0 -5 5 -10 11 -10 5 0 7 5 4 10 -3 6 -8 10 -11 10 -2 0
-4 -4 -4 -10z"/>
<path d="M6435 5520 c-3 -5 -1 -10 4 -10 6 0 11 5 11 10 0 6 -2 10 -4 10 -3 0
-8 -4 -11 -10z"/>
<path d="M6545 5520 c3 -5 8 -10 11 -10 2 0 4 5 4 10 0 6 -5 10 -11 10 -5 0
-7 -4 -4 -10z"/>
<path d="M7050 5505 c0 -9 -12 -21 -27 -27 -25 -10 -26 -12 -8 -16 11 -2 24
-11 31 -20 9 -12 14 -10 33 17 12 17 27 29 32 26 5 -4 9 -1 9 4 0 14 -27 14
-35 1 -11 -18 -27 -11 -22 10 3 11 1 20 -4 20 -5 0 -9 -7 -9 -15z"/>
<path d="M6816 5494 c-8 -22 -8 -24 6 -24 6 0 8 3 5 7 -4 3 -2 12 4 20 7 8 8
13 1 13 -5 0 -13 -7 -16 -16z"/>
<path d="M6646 5491 c-3 -5 1 -11 9 -15 8 -3 15 -1 15 4 0 13 -18 22 -24 11z"/>
<path d="M6069 5485 c-1 -3 -2 -10 -3 -15 0 -6 -8 -15 -16 -21 -11 -8 -9 -9
10 -3 31 8 39 15 22 21 -6 3 -10 9 -6 14 3 5 3 9 0 9 -3 0 -7 -2 -7 -5z"/>
<path d="M6850 5480 c0 -5 5 -10 10 -10 6 0 10 5 10 10 0 6 -4 10 -10 10 -5 0
-10 -4 -10 -10z"/>
<path d="M6901 5471 c-8 -5 -11 -16 -8 -26 4 -9 3 -14 -3 -10 -6 3 -10 2 -10
-3 0 -6 7 -13 15 -16 17 -6 31 17 20 34 -3 5 -1 10 4 10 6 0 11 5 11 10 0 12
-10 13 -29 1z"/>
<path d="M6111 5454 c0 -11 3 -14 6 -6 3 7 2 16 -1 19 -3 4 -6 -2 -5 -13z"/>
<path d="M7120 5460 c0 -5 5 -10 10 -10 6 0 10 5 10 10 0 6 -4 10 -10 10 -5 0
-10 -4 -10 -10z"/>
<path d="M6235 5450 c3 -5 8 -10 11 -10 2 0 4 5 4 10 0 6 -5 10 -11 10 -5 0
-7 -4 -4 -10z"/>
<path d="M7090 5451 c0 -5 5 -13 10 -16 6 -3 10 -2 10 4 0 5 -4 13 -10 16 -5
3 -10 2 -10 -4z"/>
<path d="M6810 5440 c0 -5 5 -10 10 -10 6 0 10 5 10 10 0 6 -4 10 -10 10 -5 0
-10 -4 -10 -10z"/>
<path d="M6995 5431 c5 -15 2 -27 -6 -33 -10 -6 -6 -7 11 -2 35 9 35 10 10 36
l-22 23 7 -24z"/>
<path d="M7150 5439 c0 -6 -7 -9 -15 -5 -8 3 -15 1 -15 -4 0 -6 5 -10 11 -10
6 0 9 -7 6 -14 -4 -9 -1 -13 6 -10 11 4 21 54 11 54 -2 0 -4 -5 -4 -11z"/>
<path d="M7230 5446 c0 -2 7 -9 15 -16 13 -11 14 -10 9 4 -5 14 -24 23 -24 12z"/>
<path d="M6770 5384 c0 -7 7 -14 15 -18 8 -3 15 -13 15 -23 0 -16 1 -16 16 -1
16 16 11 43 -7 33 -5 -4 -9 -4 -9 0 0 3 10 10 23 15 18 7 16 9 -15 7 -21 -1
-38 -7 -38 -13z"/>
<path d="M6860 5385 c-10 -12 -10 -15 3 -15 19 0 31 16 18 24 -5 3 -14 -1 -21
-9z"/>
<path d="M7055 5390 c-3 -5 3 -10 15 -10 12 0 18 5 15 10 -3 6 -10 10 -15 10
-5 0 -12 -4 -15 -10z"/>
<path d="M7256 5379 c4 -8 0 -9 -15 -4 -12 3 -21 2 -21 -3 0 -16 22 -19 57 -9
41 13 43 27 2 27 -19 0 -28 -4 -23 -11z"/>
<path d="M7329 5371 c-7 -10 -18 -17 -24 -14 -18 6 -26 -24 -10 -37 11 -9 18
-7 34 9 12 12 18 21 15 21 -4 0 -1 6 5 14 8 9 9 16 2 20 -6 4 -16 -2 -22 -13z"/>
<path d="M7090 5359 c0 -5 5 -7 10 -4 6 3 10 8 10 11 0 2 -4 4 -10 4 -5 0 -10
-5 -10 -11z"/>
<path d="M6995 5350 c3 -5 8 -10 11 -10 2 0 4 5 4 10 0 6 -5 10 -11 10 -5 0
-7 -4 -4 -10z"/>
<path d="M7153 5342 c10 -10 17 -23 17 -29 0 -6 6 -16 14 -22 8 -7 12 -22 10
-34 -2 -13 -1 -16 2 -7 4 8 13 19 20 23 21 12 17 30 -5 24 -14 -3 -22 4 -32
29 -7 19 -19 34 -27 34 -13 0 -12 -3 1 -18z"/>
<path d="M7057 5333 c-4 -3 -7 -11 -7 -17 0 -6 5 -5 12 2 6 6 9 14 7 17 -3 3
-9 2 -12 -2z"/>
<path d="M7257 5333 c-4 -3 -7 -16 -6 -27 0 -19 1 -19 10 3 10 24 8 36 -4 24z"/>
<path d="M6890 5320 c0 -5 5 -10 10 -10 6 0 10 5 10 10 0 6 -4 10 -10 10 -5 0
-10 -4 -10 -10z"/>
<path d="M7096 5320 c-15 -5 -16 -9 -7 -14 7 -5 18 -3 24 3 14 14 6 20 -17 11z"/>
<path d="M7270 5302 c0 -6 9 -16 19 -22 25 -13 31 -13 31 2 0 6 -3 8 -7 5 -3
-4 -15 0 -25 10 -10 9 -18 11 -18 5z"/>
<path d="M6870 5281 c0 -5 5 -13 10 -16 6 -3 10 -2 10 4 0 5 -4 13 -10 16 -5
3 -10 2 -10 -4z"/>
<path d="M7137 5279 c7 -7 15 -10 18 -7 3 3 -2 9 -12 12 -14 6 -15 5 -6 -5z"/>
<path d="M7336 5274 c-5 -12 -2 -15 10 -10 8 3 18 6 20 6 2 0 4 5 4 10 0 16
-27 11 -34 -6z"/>
<path d="M7222 5239 c2 -7 10 -15 17 -17 8 -3 12 1 9 9 -2 7 -10 15 -17 17 -8
3 -12 -1 -9 -9z"/>
<path d="M7060 5228 c0 -9 5 -20 11 -23 17 -11 20 0 4 21 -13 17 -14 17 -15 2z"/>
<path d="M7307 5213 c-10 -9 -9 -23 2 -23 5 0 11 7 15 15 5 15 -5 20 -17 8z"/>
<path d="M7252 5196 c1 -10 8 -17 13 -17 15 1 12 24 -3 29 -9 3 -13 -2 -10
-12z"/>
<path d="M7150 5184 c0 -6 11 -21 25 -34 l25 -23 0 22 c0 14 -4 20 -12 15 -6
-4 -17 1 -25 11 -7 11 -13 14 -13 9z"/>
<path d="M7306 5154 c-9 -35 -5 -37 34 -18 l33 17 -24 13 c-33 18 -36 18 -43
-12z"/>
<path d="M7095 5130 c4 -6 11 -8 16 -5 14 9 11 15 -7 15 -8 0 -12 -5 -9 -10z"/>
<path d="M7250 5110 c0 -5 5 -10 10 -10 6 0 10 5 10 10 0 6 -4 10 -10 10 -5 0
-10 -4 -10 -10z"/>
<path d="M7070 5090 c0 -5 7 -7 15 -4 8 4 15 8 15 10 0 2 -7 4 -15 4 -8 0 -15
-4 -15 -10z"/>
<path d="M7380 5056 c0 -14 5 -28 12 -32 7 -4 8 -3 4 4 -4 7 -1 12 8 12 19 0
21 11 4 28 -19 19 -28 14 -28 -12z"/>
<path d="M7145 5000 c-19 -8 -19 -9 3 -9 12 -1 22 4 22 9 0 6 -1 10 -2 9 -2 0
-12 -4 -23 -9z"/>
<path d="M7300 4991 c0 -6 5 -13 10 -16 6 -3 10 1 10 9 0 9 -4 16 -10 16 -5 0
-10 -4 -10 -9z"/>
<path d="M7286 4951 c-15 -6 -16 -10 -7 -16 8 -4 16 -2 21 5 4 7 13 9 19 6 6
-4 11 -2 11 3 0 12 -16 13 -44 2z"/>
<path d="M7190 4940 c0 -5 5 -10 10 -10 6 0 10 5 10 10 0 6 -4 10 -10 10 -5 0
-10 -4 -10 -10z"/>
<path d="M7250 4876 c0 -2 7 -9 15 -16 13 -11 14 -10 9 4 -5 14 -24 23 -24 12z"/>
<path d="M7250 4815 c0 -8 0 -18 -1 -22 0 -4 3 -9 8 -10 4 -2 8 8 8 22 0 14
-3 25 -7 25 -5 0 -8 -7 -8 -15z"/>
<path d="M9140 4760 c0 -13 11 -13 30 0 12 8 11 10 -7 10 -13 0 -23 -4 -23
-10z"/>
<path d="M7290 4705 c-11 -13 -10 -14 4 -9 9 3 16 10 16 15 0 13 -6 11 -20 -6z"/>
<path d="M7171 4594 c0 -11 3 -14 6 -6 3 7 2 16 -1 19 -3 4 -6 -2 -5 -13z"/>
<path d="M7272 4543 c2 -10 13 -19 26 -21 30 -5 28 12 -4 27 -22 10 -25 9 -22
-6z"/>
<path d="M7216 4542 c-3 -6 -1 -14 5 -17 14 -9 20 -2 10 14 -6 8 -11 9 -15 3z"/>
<path d="M7117 4470 c-3 -11 -1 -23 4 -26 5 -3 9 6 9 20 0 31 -6 34 -13 6z"/>
<path d="M7140 4425 c-8 -9 -8 -15 -2 -15 12 0 26 19 19 26 -2 2 -10 -2 -17
-11z"/>
<path d="M7210 4414 c0 -8 5 -12 10 -9 6 3 10 10 10 16 0 5 -4 9 -10 9 -5 0
-10 -7 -10 -16z"/>
<path d="M8873 4405 c-11 -26 -7 -30 21 -19 19 7 22 44 4 44 -7 0 -18 -11 -25
-25z"/>
<path d="M7045 4260 c3 -5 8 -10 11 -10 2 0 4 5 4 10 0 6 -5 10 -11 10 -5 0
-7 -4 -4 -10z"/>
<path d="M7032 4202 c-14 -4 -6 -22 9 -22 6 0 7 6 3 13 -3 6 5 -1 20 -18 18
-22 25 -26 26 -13 0 9 -6 19 -12 21 -7 3 -3 6 10 6 15 1 21 -3 16 -11 -4 -7
-3 -8 4 -4 6 4 9 13 5 22 -5 13 -49 17 -81 6z"/>
<path d="M6753 3896 c0 -8 6 -12 14 -9 7 3 13 9 13 14 0 5 -6 9 -13 9 -8 0
-14 -6 -14 -14z"/>
<path d="M6674 3879 c-4 -7 -3 -9 4 -5 5 3 12 0 15 -6 2 -7 7 -10 11 -7 4 3 0
12 -8 18 -11 9 -16 9 -22 0z"/>
<path d="M6591 3739 c-15 -26 -10 -33 12 -16 10 7 13 17 9 24 -6 9 -11 6 -21
-8z"/>
<path d="M6550 3665 c0 -8 2 -15 4 -15 2 0 6 7 10 15 3 8 1 15 -4 15 -6 0 -10
-7 -10 -15z"/>
<path d="M6510 3570 c0 -5 5 -10 11 -10 5 0 7 5 4 10 -3 6 -8 10 -11 10 -2 0
-4 -4 -4 -10z"/>
<path d="M7570 3460 c0 -5 10 -10 23 -10 18 0 19 2 7 10 -19 13 -30 13 -30 0z"/>
<path d="M7560 3261 c0 -5 5 -13 10 -16 6 -3 10 -2 10 4 0 5 -4 13 -10 16 -5
3 -10 2 -10 -4z"/>
<path d="M7486 3224 c-4 -9 -1 -23 5 -30 10 -12 14 -11 24 3 10 13 10 22 3 30
-14 17 -25 16 -32 -3z"/>
<path d="M7570 3175 c-7 -9 -8 -15 -2 -15 5 0 12 7 16 15 3 8 4 15 2 15 -2 0
-9 -7 -16 -15z"/>
<path d="M7585 3066 c-18 -13 -18 -14 8 -9 15 3 27 9 27 14 0 13 -13 11 -35
-5z"/>
<path d="M7600 3018 c-12 -22 -12 -22 6 -6 10 10 15 20 12 24 -4 3 -12 -5 -18
-18z"/>
<path d="M9970 2990 c0 -5 5 -10 11 -10 5 0 7 5 4 10 -3 6 -8 10 -11 10 -2 0
-4 -4 -4 -10z"/>
<path d="M7675 2971 c-3 -5 -1 -12 5 -16 5 -3 10 1 10 9 0 18 -6 21 -15 7z"/>
<path d="M7650 2952 c6 -13 14 -21 18 -18 3 4 -2 14 -12 24 -18 16 -18 16 -6
-6z"/>
<path d="M9785 2940 c4 -6 11 -8 16 -5 14 9 11 15 -7 15 -8 0 -12 -5 -9 -10z"/>
<path d="M7836 2792 c-8 -13 10 -52 24 -52 13 0 12 10 -4 39 -8 15 -16 20 -20
13z"/>
<path d="M8725 2650 c3 -5 11 -10 16 -10 6 0 7 5 4 10 -3 6 -11 10 -16 10 -6
0 -7 -4 -4 -10z"/>
<path d="M8776 2624 c-4 -10 -14 -14 -26 -11 -20 5 -48 -17 -33 -26 14 -9 73
21 73 38 0 20 -6 19 -14 -1z"/>
<path d="M8050 2575 c0 -10 29 -24 34 -17 3 6 -3 12 -14 15 -11 3 -20 4 -20 2z"/>
<path d="M6421 2234 c0 -11 3 -14 6 -6 3 7 2 16 -1 19 -3 4 -6 -2 -5 -13z"/>
<path d="M6840 1959 c0 -5 5 -7 10 -4 6 3 10 8 10 11 0 2 -4 4 -10 4 -5 0 -10
-5 -10 -11z"/>
<path d="M7090 1884 c0 -8 5 -12 10 -9 6 4 8 11 5 16 -9 14 -15 11 -15 -7z"/>
<path d="M7135 1850 c-3 -5 1 -10 10 -10 9 0 13 5 10 10 -3 6 -8 10 -10 10 -2
0 -7 -4 -10 -10z"/>
<path d="M7175 1840 c-8 -13 5 -13 25 0 13 8 13 10 -2 10 -9 0 -20 -4 -23 -10z"/>
<path d="M7225 1840 c-3 -5 -1 -10 4 -10 6 0 11 5 11 10 0 6 -2 10 -4 10 -3 0
-8 -4 -11 -10z"/>
<path d="M7388 1723 c7 -3 16 -2 19 1 4 3 -2 6 -13 5 -11 0 -14 -3 -6 -6z"/>
<path d="M7620 1690 c0 -5 5 -10 10 -10 6 0 10 5 10 10 0 6 -4 10 -10 10 -5 0
-10 -4 -10 -10z"/>
<path d="M7858 1653 c7 -3 16 -2 19 1 4 3 -2 6 -13 5 -11 0 -14 -3 -6 -6z"/>
<path d="M8208 1583 c6 -2 18 -2 25 0 6 3 1 5 -13 5 -14 0 -19 -2 -12 -5z"/>
<path d="M8280 1464 l-45 -13 58 2 c40 1 57 -2 57 -11 0 -10 4 -10 20 0 55 35
-3 49 -90 22z"/>
<path d="M8220 1360 c-13 -8 -13 -10 2 -10 9 0 20 5 23 10 8 13 -5 13 -25 0z"/>
<path d="M8260 1366 c0 -9 30 -14 35 -6 4 6 -3 10 -14 10 -12 0 -21 -2 -21 -4z"/>
<path d="M8168 1353 c7 -3 16 -2 19 1 4 3 -2 6 -13 5 -11 0 -14 -3 -6 -6z"/>
<path d="M7316 1253 c-3 -3 -3 -10 0 -14 7 -12 34 -11 34 0 0 11 -26 22 -34
14z"/>
<path d="M10030 702 c0 -30 15 -35 35 -12 10 11 13 20 7 20 -6 0 -17 3 -26 6
-11 4 -16 0 -16 -14z"/>
<path d="M9956 692 c-3 -6 -1 -14 5 -17 15 -10 25 3 12 16 -7 7 -13 7 -17 1z"/>
<path d="M8660 667 c0 -9 11 -29 25 -44 19 -22 24 -24 25 -11 0 9 -11 29 -25
44 -18 20 -25 23 -25 11z"/>
<path d="M10130 630 c0 -13 18 -22 24 -11 3 5 -1 11 -9 15 -8 3 -15 1 -15 -4z"/>
<path d="M10182 617 c-12 -13 -22 -31 -22 -41 0 -12 -5 -16 -16 -12 -10 4 -14
1 -11 -6 2 -7 14 -13 26 -12 26 1 28 -16 2 -23 -11 -3 -22 -11 -25 -19 -6 -17
-5 -17 29 -4 32 12 51 4 35 -15 -11 -14 -8 -17 25 -29 16 -6 18 -5 8 5 -15 15
-17 59 -3 59 6 0 10 7 10 15 0 8 -4 15 -10 15 -5 0 -10 7 -10 15 0 8 5 15 10
15 6 0 10 7 10 15 0 21 -9 19 -31 -6 -10 -12 -23 -18 -30 -14 -7 5 -3 15 15
30 14 12 26 25 26 29 0 13 -17 5 -38 -17z"/>
<path d="M9674 609 c-3 -6 -1 -16 5 -22 8 -8 11 -5 11 11 0 24 -5 28 -16 11z"/>
<path d="M9721 604 c0 -11 3 -14 6 -6 3 7 2 16 -1 19 -3 4 -6 -2 -5 -13z"/>
<path d="M9630 585 c0 -8 5 -15 10 -15 6 0 10 7 10 15 0 8 -4 15 -10 15 -5 0
-10 -7 -10 -15z"/>
<path d="M9770 590 c0 -5 4 -10 9 -10 6 0 13 5 16 10 3 6 -1 10 -9 10 -9 0
-16 -4 -16 -10z"/>
<path d="M9830 514 c0 -10 28 -34 40 -34 19 0 6 22 -18 31 -12 5 -22 6 -22 3z"/>
<path d="M10162 463 c1 -16 -1 -38 -6 -50 -6 -19 -4 -23 14 -23 12 0 19 -4 15
-9 -3 -5 -1 -12 4 -15 5 -3 12 2 16 11 3 10 1 19 -4 21 -6 2 -8 14 -5 28 4 15
2 24 -5 24 -6 0 -11 9 -11 20 0 11 -4 20 -10 20 -5 0 -8 -12 -8 -27z"/>
<path d="M9809 452 c-13 -15 -13 -20 -3 -30 17 -16 25 -15 18 2 -3 7 2 21 11
30 12 12 13 16 3 16 -7 0 -21 -8 -29 -18z"/>
<path d="M9296 435 c-4 -10 1 -15 14 -15 11 0 20 -4 20 -10 0 -5 -9 -10 -20
-10 -31 0 -23 -17 10 -22 25 -4 30 -1 30 17 0 12 -8 29 -18 38 -23 21 -28 21
-36 2z"/>
<path d="M9451 420 c0 -8 4 -22 9 -30 12 -18 12 -2 0 25 -6 13 -9 15 -9 5z"/>
<path d="M9910 418 c0 -9 5 -20 10 -23 13 -8 13 5 0 25 -8 13 -10 13 -10 -2z"/>
<path d="M9857 413 c-4 -3 -7 -11 -7 -17 0 -6 5 -5 12 2 6 6 9 14 7 17 -3 3
-9 2 -12 -2z"/>
<path d="M9680 402 c0 -10 21 -32 31 -32 4 0 5 9 2 20 -5 19 -33 29 -33 12z"/>
<path d="M9871 378 c-12 -33 -1 -45 15 -17 16 29 17 39 4 39 -6 0 -14 -10 -19
-22z"/>
<path d="M9620 380 c0 -5 5 -10 10 -10 6 0 10 5 10 10 0 6 -4 10 -10 10 -5 0
-10 -4 -10 -10z"/>
<path d="M9761 377 c-11 -15 -11 -17 2 -17 9 0 19 -9 22 -20 3 -11 10 -20 15
-20 5 0 7 6 4 13 -3 8 2 20 10 27 9 7 13 16 10 21 -8 14 -24 10 -24 -6 0 -20
-18 -19 -22 2 -3 15 -4 15 -17 0z"/>
<path d="M9192 373 c-6 -2 -10 -9 -6 -14 8 -14 21 -11 28 6 6 15 1 17 -22 8z"/>
<path d="M10120 369 c0 -5 5 -7 10 -4 6 3 10 8 10 11 0 2 -4 4 -10 4 -5 0 -10
-5 -10 -11z"/>
<path d="M6676 355 c4 -8 11 -15 16 -15 6 0 5 6 -2 15 -7 8 -14 15 -16 15 -2
0 -1 -7 2 -15z"/>
<path d="M9365 360 c-3 -5 -2 -10 4 -10 5 0 13 5 16 10 3 6 2 10 -4 10 -5 0
-13 -4 -16 -10z"/>
<path d="M9415 359 c-11 -17 -2 -18 19 -3 17 12 17 14 4 14 -9 0 -20 -5 -23
-11z"/>
<path d="M9590 360 c0 -5 5 -10 10 -10 6 0 10 5 10 10 0 6 -4 10 -10 10 -5 0
-10 -4 -10 -10z"/>
<path d="M10076 361 c-4 -5 -1 -13 5 -16 5 -4 8 -13 5 -21 -3 -8 -1 -14 4 -14
18 0 21 20 7 41 -9 12 -18 16 -21 10z"/>
<path d="M9300 350 c0 -5 5 -10 11 -10 5 0 7 5 4 10 -3 6 -8 10 -11 10 -2 0
-4 -4 -4 -10z"/>
<path d="M9213 343 c-24 -5 -30 -18 -13 -28 15 -9 57 5 57 21 0 14 -4 15 -44
7z"/>
<path d="M9318 328 c-16 -5 -28 -16 -28 -24 0 -8 -4 -14 -10 -14 -5 0 -10 -5
-10 -11 0 -6 7 -9 15 -5 10 4 15 -1 15 -14 0 -27 -5 -25 -41 11 -17 17 -33 29
-36 25 -3 -3 2 -12 11 -21 18 -19 20 -31 6 -40 -6 -4 -7 -11 -4 -17 5 -7 12
-4 21 8 14 19 15 19 29 0 12 -18 14 -18 14 -2 0 9 6 16 13 15 26 -3 44 2 63
17 14 12 15 14 3 11 -9 -3 -22 0 -28 6 -8 8 -11 7 -11 -6 0 -9 -7 -17 -15 -17
-19 0 -20 49 -1 56 11 4 34 37 23 33 -1 0 -14 -5 -29 -11z"/>
<path d="M9900 329 c0 -5 5 -7 10 -4 6 3 10 8 10 11 0 2 -4 4 -10 4 -5 0 -10
-5 -10 -11z"/>
<path d="M9355 320 c-3 -5 7 -12 22 -16 15 -4 31 -12 35 -18 5 -7 8 -4 8 7 0
10 -11 22 -26 27 -31 12 -31 12 -39 0z"/>
<path d="M9544 315 c3 -8 1 -15 -4 -15 -6 0 -10 -10 -10 -22 l1 -23 19 24 c24
28 26 51 4 51 -10 0 -14 -6 -10 -15z"/>
<path d="M9446 297 c-7 -28 -7 -27 0 -29 4 -2 13 7 21 18 12 19 12 22 -1 27
-9 4 -16 -2 -20 -16z"/>
<path d="M10150 310 c0 -5 5 -10 11 -10 5 0 7 5 4 10 -3 6 -8 10 -11 10 -2 0
-4 -4 -4 -10z"/>
<path d="M10190 305 c-16 -19 -10 -19 26 0 25 13 26 15 8 15 -12 0 -27 -7 -34
-15z"/>
<path d="M6650 266 c0 -2 7 -7 16 -10 8 -3 12 -2 9 4 -6 10 -25 14 -25 6z"/>
<path d="M10130 261 c0 -5 5 -13 10 -16 6 -3 10 -2 10 4 0 5 -4 13 -10 16 -5
3 -10 2 -10 -4z"/>
<path d="M9560 249 c0 -5 5 -7 10 -4 6 3 10 8 10 11 0 2 -4 4 -10 4 -5 0 -10
-5 -10 -11z"/>
<path d="M6679 225 c-12 -23 -8 -65 6 -65 16 0 17 10 6 50 -4 14 -9 20 -12 15z"/>
<path d="M9462 188 c-19 -19 -14 -29 8 -16 20 13 27 28 12 28 -4 0 -13 -5 -20
-12z"/>
<path d="M9095 180 c3 -5 11 -10 16 -10 6 0 7 5 4 10 -3 6 -11 10 -16 10 -6 0
-7 -4 -4 -10z"/>
<path d="M9290 130 c0 -5 5 -10 10 -10 6 0 10 5 10 10 0 6 -4 10 -10 10 -5 0
-10 -4 -10 -10z"/>
<path d="M9422 128 c5 -15 28 -23 28 -10 0 5 -7 13 -16 16 -10 4 -14 1 -12 -6z"/>
<path d="M8990 119 c0 -5 5 -7 10 -4 6 3 10 8 10 11 0 2 -4 4 -10 4 -5 0 -10
-5 -10 -11z"/>
<path d="M8870 110 c0 -5 -7 -10 -15 -10 -8 0 -15 -5 -15 -11 0 -6 -6 -9 -12
-7 -7 3 -18 -5 -24 -16 -6 -12 -16 -20 -22 -18 -15 3 -15 -5 0 -22 10 -10 16
-8 33 12 18 21 24 23 43 13 12 -6 22 -15 22 -20 0 -5 11 -6 25 -3 14 2 22 9
19 14 -3 5 -12 7 -20 4 -11 -4 -14 4 -14 34 0 22 -4 40 -10 40 -5 0 -10 -4
-10 -10z"/>
<path d="M9040 110 c0 -5 5 -10 10 -10 6 0 10 5 10 10 0 6 -4 10 -10 10 -5 0
-10 -4 -10 -10z"/>
<path d="M9340 100 c0 -5 5 -10 11 -10 5 0 7 5 4 10 -3 6 -8 10 -11 10 -2 0
-4 -4 -4 -10z"/>
<path d="M9010 50 c0 -5 5 -10 10 -10 6 0 10 5 10 10 0 6 -4 10 -10 10 -5 0
-10 -4 -10 -10z"/>
<path d="M9240 50 c0 -8 24 -20 41 -20 6 0 8 4 5 9 -8 12 -46 21 -46 11z"/>
<path d="M8970 43 c0 -6 -3 -18 -6 -27 -3 -9 -2 -16 4 -16 15 0 21 25 11 41
-5 9 -9 9 -9 2z"/>
<path d="M9090 42 c0 -5 7 -17 16 -28 14 -17 15 -17 10 -1 -3 10 -6 23 -6 28
0 5 -4 9 -10 9 -5 0 -10 -4 -10 -8z"/>
<path d="M9440 40 c0 -5 5 -10 10 -10 6 0 10 5 10 10 0 6 -4 10 -10 10 -5 0
-10 -4 -10 -10z"/>
<path d="M9500 40 c-9 -6 -10 -10 -3 -10 6 0 15 5 18 10 8 12 4 12 -15 0z"/>
<path d="M9210 35 c0 -15 18 -40 24 -34 3 3 -1 14 -9 25 -8 10 -14 15 -15 9z"/>
<path d="M9363 21 c-10 -16 -8 -18 16 -17 18 1 28 7 28 19 2 23 -29 22 -44 -2z"/>
</g>
</svg>
